<svg xmlns="http://www.w3.org/2000/svg" viewBox="0 0 400 400"><defs><style>.cls-1,.cls-2{fill:none;stroke:#494b55;stroke-width:7px;}.cls-1{stroke-miterlimit:10;}.cls-2{stroke-linecap:round;stroke-linejoin:round;}.cls-3{fill:#494b55;}</style></defs><g id="_1" data-name="1"><path class="cls-1" d="M115.71,186.32a83.52,83.52,0,0,1,167,0"/><path class="cls-2" d="M199.23,138.74a57.86,57.86,0,0,0-43.29,96.33l-.05,0L146,271.33l42.1-17.8v0a57.92,57.92,0,1,0,11.09-114.77Z"/><circle class="cls-3" cx="222.79" cy="196.41" r="7.5"/><circle class="cls-3" cx="199.21" cy="196.41" r="7.5"/><circle class="cls-3" cx="175.63" cy="196.41" r="7.5"/><path class="cls-3" d="M296.79,185.16a4,4,0,0,1,4,4v26.93a4,4,0,0,1-4,4h-8v-35h8m0-7h-15v49h15a11,11,0,0,0,11-11V189.19a11,11,0,0,0-11-11Z"/><path class="cls-3" d="M109.81,185.16v35h-8a4,4,0,0,1-4-4V189.19a4,4,0,0,1,4-4h8m7-7h-15a11,11,0,0,0-11,11v26.93a11,11,0,0,0,11,11h15v-49Z"/><path class="cls-3" d="M207.6,286a6,6,0,1,1,0,12H191.65a6,6,0,1,1,0-12H207.6m0-7H191.65a13,13,0,1,0,0,26H207.6a13,13,0,1,0,0-26Z"/><path class="cls-1" d="M282.75,223.2c0,26.42-19.77,47.84-42,59.43a105,105,0,0,1-22.05,8.45"/></g></svg>