<svg xmlns="http://www.w3.org/2000/svg" viewBox="0 0 400 400"><defs><style>.cls-1{fill:#494b55;}</style></defs><g id="_1" data-name="1"><path class="cls-1" d="M266.67,238.82l-8.49-5.11a16.6,16.6,0,0,0-8.57-2.38H236.84a30.25,30.25,0,0,0-7.75,1l-38.5,10.38a13.43,13.43,0,0,0-9.06,8.46l-33.86-18.42a13.28,13.28,0,0,0-9.07-1.51,12.6,12.6,0,0,0-3.37,1.12,13.16,13.16,0,0,0-5.72,5.36,13.45,13.45,0,0,0-1.77,6.67A13.3,13.3,0,0,0,134.33,256L195,292.49a16.6,16.6,0,0,0,8.77,2.51h47a16.7,16.7,0,0,0,6.13-1.17l9.78-3.89V295H300V228H266.67Zm-12.23,48.77a9.86,9.86,0,0,1-3.67.71h-47a10,10,0,0,1-5.31-1.54l-60.77-36.54a6.67,6.67,0,0,1-3.31-5.82,6.8,6.8,0,0,1,.89-3.35,6.59,6.59,0,0,1,2.87-2.66,6,6,0,0,1,1.66-.54,6.85,6.85,0,0,1,1.28-.12,6.59,6.59,0,0,1,3.27.87l36.71,20c0,.2,0,.4.1.61a13.38,13.38,0,0,0,12.89,9.91,33.08,33.08,0,0,0,5.49-1l34.63-9.32-1.72-6.47L198,261.57c-1.52.36-3.48.76-3.88.79a6.54,6.54,0,0,1-6.64-6.17s0-.82,0-1.1a6.76,6.76,0,0,1,4.9-5.91l38.48-10.35a23.17,23.17,0,0,1,6-.8h12.77a10,10,0,0,1,5.14,1.43l11.92,7.18v36.09Zm18.89-52.91h20V288.3h-20Z"/><path class="cls-1" d="M237.48,131.81l-17.88-18A29.73,29.73,0,0,0,198.39,105H156.48a16.6,16.6,0,0,0-7.45,1.77l-7.47,3.76a10,10,0,0,1-4.84,1l-3.39-.12V105H100v73.72h33.33V168.67H139l2,1.34a36.57,36.57,0,0,0,19,6.14v42.78H300V131.81ZM126.67,172h-20V111.7h20Zm18-7.59L141,162h-7.67V118.16l3.15.12a16.69,16.69,0,0,0,8.06-1.76l7.46-3.76a10.11,10.11,0,0,1,4.48-1.06h41.91a23.13,23.13,0,0,1,16.5,6.87l13.16,13.24h-27.5l-8.09-8.13-4.72,4.73,23.55,23.68a6.74,6.74,0,0,1,0,9.5,6.65,6.65,0,0,1-9.45,0l-19.67-19.77-2.33,2a17.6,17.6,0,0,1-22.47.33l-1.93-1.57-4.2,5.2,2,1.6a24.14,24.14,0,0,0,6.79,3.84v16.2A30,30,0,0,1,144.71,164.43Zm47.41-3.13,5,5a13.39,13.39,0,0,0,18.84,0,17,17,0,0,0,4.38,23A16.81,16.81,0,0,0,243.44,186a17,17,0,0,0-2.28-23.32,16.81,16.81,0,0,0-23.28,1.23,13.24,13.24,0,0,0,1.09-12h44.64A20.09,20.09,0,0,0,280,168.39v14a20.11,20.11,0,0,0-16.39,16.48H196.39A20.11,20.11,0,0,0,180,182.35v-14A19.91,19.91,0,0,0,192.12,161.3ZM220,175.37a10,10,0,1,1,10,10A10,10,0,0,1,220,175.37Zm73.33,36.86H166.67V154.66a24.14,24.14,0,0,0,15-3.86l5.68,5.72A13.26,13.26,0,0,1,176.67,162h-3.34v26.8h3.34A13.38,13.38,0,0,1,190,202.18v3.35h80v-3.35a13.38,13.38,0,0,1,13.33-13.41h3.34V162h-3.34A13.38,13.38,0,0,1,270,148.56v-3.35H213.88l-6.67-6.7h86.12Z"/></g></svg>