<svg width="104" height="105" viewBox="0 0 104 105" fill="none" xmlns="http://www.w3.org/2000/svg">
<path d="M49.9318 37.9231H46.6895C46.7124 40.9895 48.3612 42.8929 51.0317 43.2934V45.8193H53.2576V43.2904C56.0387 42.8626 57.5999 40.8163 57.5999 38.3052C57.5999 35.0606 55.1907 33.6421 53.1339 32.4311C51.6021 31.5291 50.2657 30.7423 50.2657 29.4018C50.2657 28.3723 50.9316 27.7045 52.1447 27.7045C53.3578 27.7045 54.0737 28.3983 54.0997 29.8395H57.3383C57.3188 27.019 55.7895 25.1478 53.2576 24.733V22.2048H51.0317V24.7337C48.5167 25.1474 47.0512 26.9806 47.0512 29.3294C47.0512 32.3866 49.3514 33.8035 51.3614 35.0415C52.9209 36.0021 54.3056 36.855 54.3056 38.2829C54.3056 39.4404 53.6119 40.2899 52.1706 40.2899C50.8073 40.2899 49.9578 39.5424 49.9318 37.9231Z" fill="#BDACA8"/>
<path fill-rule="evenodd" clip-rule="evenodd" d="M32.4829 34.1447C32.4829 23.2858 41.2858 14.4829 52.1447 14.4829C63.0036 14.4829 71.8064 23.2858 71.8064 34.1447C71.8064 45.0036 63.0036 53.8065 52.1447 53.8065C41.2858 53.8065 32.4829 45.0036 32.4829 34.1447ZM52.1447 16.7088C42.5151 16.7088 34.7088 24.5151 34.7088 34.1447C34.7088 43.7743 42.5151 51.5806 52.1447 51.5806C61.7743 51.5806 69.5806 43.7743 69.5806 34.1447C69.5806 24.5151 61.7743 16.7088 52.1447 16.7088Z" fill="#BDACA8"/>
<path fill-rule="evenodd" clip-rule="evenodd" d="M23.2085 34.1447C23.2085 18.1637 36.1637 5.20853 52.1447 5.20853C68.1257 5.20853 81.0808 18.1637 81.0808 34.1447C81.0808 50.1257 68.1257 63.0809 52.1447 63.0809C36.1637 63.0809 23.2085 50.1257 23.2085 34.1447ZM52.1447 7.43439C50.3125 7.43439 48.5234 7.61885 46.795 7.97023C46.8789 8.19693 47.171 8.58736 48.0295 8.99296C49.0251 9.46333 50.4787 9.78452 52.1447 9.78452C53.8106 9.78452 55.2643 9.46333 56.2598 8.99296C57.1183 8.58736 57.4104 8.19693 57.4943 7.97023C55.7659 7.61885 53.9768 7.43439 52.1447 7.43439ZM25.4344 34.1447C25.4344 31.039 25.9644 28.0572 26.9389 25.2847C27.7951 25.3684 28.7037 25.1169 29.4835 24.7583C30.8443 24.1324 32.2764 22.9942 33.51 21.5232C34.7433 20.0527 35.6157 18.445 35.9962 16.9964C36.3221 15.7555 36.3624 14.2728 35.4716 13.276C38.1499 11.1334 41.2497 9.49561 44.6267 8.50697C44.934 9.67322 46.007 10.4992 47.0786 11.0055C48.4327 11.6453 50.2251 12.0104 52.1447 12.0104C54.0642 12.0104 55.8566 11.6453 57.2107 11.0055C58.2823 10.4992 59.3553 9.67322 59.6626 8.50697C63.0419 9.49628 66.1436 11.1356 68.8231 13.2803C67.9363 14.2772 67.977 15.7579 68.3024 16.9971C68.6829 18.4459 69.5554 20.0537 70.7888 21.5235C72.0222 22.9933 73.4537 24.1313 74.8139 24.7574C75.5911 25.1152 76.4966 25.3666 77.3506 25.2852C78.325 28.0576 78.855 31.0393 78.855 34.1447C78.855 37.2516 78.3245 40.2347 77.3492 43.0082C76.4942 42.9258 75.5867 43.1762 74.8067 43.5342C73.4459 44.1588 72.0134 45.2946 70.7793 46.7662C69.5461 48.2367 68.6737 49.8444 68.2932 51.2927C67.9673 52.5332 67.9266 54.0165 68.8185 55.0128C66.14 57.1557 63.04 58.7937 59.6626 59.7824C59.3553 58.6162 58.2823 57.7902 57.2107 57.2839C55.8566 56.6441 54.0642 56.279 52.1447 56.279C50.2251 56.279 48.4327 56.6441 47.0786 57.2839C46.007 57.7902 44.934 58.6162 44.6267 59.7824C41.2471 58.793 38.1451 57.1535 35.4654 55.0084C36.3533 54.0122 36.3123 52.5314 35.9869 51.2927C35.6064 49.8444 34.734 48.2367 33.5007 46.7662C32.2673 45.2953 30.8357 44.1571 29.4753 43.5312C28.6979 43.1735 27.7925 42.9225 26.9387 43.004C25.9643 40.2317 25.4344 37.2501 25.4344 34.1447ZM27.8688 45.3011C29.3043 48.4196 31.323 51.2141 33.7851 53.545C33.9163 53.3989 34.1163 52.9323 33.8341 51.8583C33.5543 50.7932 32.8658 49.473 31.7952 48.1964C30.725 46.9202 29.5449 46.0134 28.5449 45.5533C28.287 45.4346 28.0626 45.3539 27.8688 45.3011ZM70.4553 16.4317C70.1741 15.361 70.3715 14.8924 70.5034 14.7437C72.9658 17.0745 74.9847 19.8691 76.4203 22.9877C76.2266 22.9349 76.0024 22.8541 75.7446 22.7355C74.7444 22.2751 73.5642 21.3681 72.4939 20.0927C71.4236 18.8173 70.7351 17.4971 70.4553 16.4317ZM70.4993 53.5497C72.9631 51.2184 74.9832 48.423 76.4196 45.3034C76.2236 45.3561 75.9965 45.4373 75.7351 45.5572C74.7346 46.0164 73.5545 46.921 72.4848 48.1964C71.4143 49.473 70.7258 50.7932 70.446 51.8583C70.1607 52.9442 70.3682 53.4091 70.4993 53.5497ZM28.5534 22.736C28.2912 22.8566 28.0637 22.9381 27.8676 22.9907C29.3043 19.8688 31.3255 17.0715 33.7909 14.7389C33.9228 14.8823 34.1276 15.349 33.8434 16.4309C33.5635 17.4962 32.875 18.8164 31.8045 20.093C30.7343 21.3691 29.5539 22.2759 28.5534 22.736ZM46.795 60.3192C48.5234 60.6705 50.3125 60.855 52.1447 60.855C53.9768 60.855 55.7659 60.6705 57.4943 60.3192C57.4104 60.0925 57.1183 59.702 56.2598 59.2964C55.2643 58.8261 53.8106 58.5049 52.1447 58.5049C50.4787 58.5049 49.0251 58.8261 48.0295 59.2964C47.171 59.702 46.8789 60.0925 46.795 60.3192Z" fill="#BDACA8"/>
<path d="M28.4455 96.904C28.9869 97.0813 29.4162 97.38 29.7335 97.8C30.0509 98.2107 30.2095 98.724 30.2095 99.34C30.2095 100.189 29.8829 100.847 29.2295 101.314C28.5762 101.771 27.6242 102 26.3735 102H21.5015V92.2H26.0935C27.2509 92.2 28.1422 92.4287 28.7675 92.886C29.3929 93.334 29.7055 93.9547 29.7055 94.748C29.7055 95.2333 29.5935 95.6627 29.3695 96.036C29.1455 96.4093 28.8375 96.6987 28.4455 96.904ZM23.3215 93.628V96.33H25.8975C26.5322 96.33 27.0175 96.218 27.3535 95.994C27.6989 95.7607 27.8715 95.4247 27.8715 94.986C27.8715 94.538 27.6989 94.202 27.3535 93.978C27.0175 93.7447 26.5322 93.628 25.8975 93.628H23.3215ZM26.2615 100.572C27.6709 100.572 28.3755 100.101 28.3755 99.158C28.3755 98.2153 27.6709 97.744 26.2615 97.744H23.3215V100.572H26.2615ZM39.5019 100.474V102H32.1519V92.2H39.3059V93.726H33.9719V96.274H38.7039V97.772H33.9719V100.474H39.5019ZM43.5188 93.74H40.2708V92.2H48.5868V93.74H45.3388V102H43.5188V93.74ZM52.0774 93.74H48.8294V92.2H57.1454V93.74H53.8974V102H52.0774V93.74ZM58.5113 92.2H60.3313V102H58.5113V92.2ZM71.69 92.2V102H70.192L64.788 95.364V102H62.982V92.2H64.48L69.884 98.836V92.2H71.69ZM81.008 96.988H82.73V100.894C82.226 101.295 81.638 101.603 80.966 101.818C80.294 102.033 79.6033 102.14 78.894 102.14C77.8953 102.14 76.9947 101.925 76.192 101.496C75.3893 101.057 74.7593 100.455 74.302 99.69C73.8447 98.9247 73.616 98.0613 73.616 97.1C73.616 96.1387 73.8447 95.2753 74.302 94.51C74.7593 93.7447 75.3893 93.1473 76.192 92.718C77.004 92.2793 77.914 92.06 78.922 92.06C79.7433 92.06 80.49 92.1953 81.162 92.466C81.834 92.7367 82.3987 93.1333 82.856 93.656L81.708 94.776C80.9613 94.0293 80.0607 93.656 79.006 93.656C78.3153 93.656 77.6993 93.8007 77.158 94.09C76.626 94.3793 76.206 94.7853 75.898 95.308C75.5993 95.8307 75.45 96.428 75.45 97.1C75.45 97.7533 75.5993 98.3413 75.898 98.864C76.206 99.3867 76.626 99.7973 77.158 100.096C77.6993 100.395 78.3107 100.544 78.992 100.544C79.7573 100.544 80.4293 100.376 81.008 100.04V96.988Z" fill="#BDACA8"/>
</svg>
