<svg width="104" height="105" viewBox="0 0 104 105" fill="none" xmlns="http://www.w3.org/2000/svg">
<path d="M64.0744 12.565C64.0744 13.6724 63.1769 14.5701 62.0697 14.5701C60.9626 14.5701 60.065 13.6724 60.065 12.565C60.065 11.4576 60.9626 10.5599 62.0697 10.5599C63.1769 10.5599 64.0744 11.4576 64.0744 12.565Z" fill="#BDACA8"/>
<path d="M69.6545 14.5701C70.7617 14.5701 71.6592 13.6724 71.6592 12.565C71.6592 11.4576 70.7617 10.5599 69.6545 10.5599C68.5474 10.5599 67.6498 11.4576 67.6498 12.565C67.6498 13.6724 68.5474 14.5701 69.6545 14.5701Z" fill="#BDACA8"/>
<path d="M79.244 12.565C79.244 13.6724 78.3465 14.5701 77.2393 14.5701C76.1321 14.5701 75.2346 13.6724 75.2346 12.565C75.2346 11.4576 76.1321 10.5599 77.2393 10.5599C78.3465 10.5599 79.244 11.4576 79.244 12.565Z" fill="#BDACA8"/>
<path fill-rule="evenodd" clip-rule="evenodd" d="M32.2498 23.4198C31.6144 23.4198 30.9853 23.5449 30.3982 23.7881C29.8112 24.0313 29.2779 24.3878 28.8286 24.8372C28.3793 25.2866 28.0229 25.8201 27.7798 26.4072C27.5366 26.9943 27.4115 27.6236 27.4115 28.2592V34.3469C27.4115 35.6304 27.9212 36.8613 28.8286 37.7688C29.2779 38.2182 29.8112 38.5747 30.3982 38.8179C30.9853 39.0611 31.6144 39.1863 32.2498 39.1863C32.8852 39.1863 33.5143 39.0611 34.1013 38.8179C34.6883 38.5747 35.2217 38.2182 35.671 37.7688C36.1203 37.3195 36.4767 36.786 36.7198 36.1988C36.963 35.6117 37.0881 34.9824 37.0881 34.3469V28.2592C37.0881 27.6236 36.963 26.9943 36.7198 26.4072C36.4767 25.8201 36.1203 25.2866 35.671 24.8372C35.2217 24.3878 34.6883 24.0313 34.1013 23.7881C33.5143 23.5449 32.8852 23.4198 32.2498 23.4198ZM32.2498 25.6456C32.9426 25.6461 33.607 25.9216 34.0969 26.4117C34.5868 26.9017 34.8622 27.5662 34.8627 28.2592V34.3469C34.8627 35.04 34.5874 35.7048 34.0974 36.1949C33.6074 36.6851 32.9428 36.9604 32.2498 36.9604C31.5568 36.9604 30.8922 36.6851 30.4022 36.1949C29.9121 35.7048 29.6368 35.04 29.6368 34.3469V28.2592C29.6373 27.5662 29.9128 26.9017 30.4027 26.4117C30.8926 25.9216 31.5569 25.6461 32.2498 25.6456Z" fill="#BDACA8"/>
<path d="M44.9789 23.4198V39.1863H47.2043V23.4198H44.9789Z" fill="#BDACA8"/>
<path fill-rule="evenodd" clip-rule="evenodd" d="M59.9334 23.4198C59.298 23.4198 58.6688 23.5449 58.0818 23.7881C57.4948 24.0313 56.9614 24.3878 56.5121 24.8372C56.0629 25.2866 55.7065 25.8201 55.4633 26.4072C55.2202 26.9943 55.095 27.6236 55.095 28.2592V34.3469C55.095 34.9824 55.2202 35.6117 55.4633 36.1988C55.7065 36.786 56.0629 37.3195 56.5121 37.7688C56.9614 38.2182 57.4948 38.5747 58.0818 38.8179C58.6688 39.0611 59.298 39.1863 59.9334 39.1863C60.5687 39.1863 61.1979 39.0611 61.7849 38.8179C62.3719 38.5747 62.9053 38.2182 63.3546 37.7688C63.8038 37.3195 64.1602 36.786 64.4034 36.1988C64.6465 35.6117 64.7717 34.9824 64.7717 34.3469V28.2592C64.7717 27.6236 64.6465 26.9943 64.4034 26.4072C64.1602 25.8201 63.8038 25.2866 63.3546 24.8372C62.9053 24.3878 62.3719 24.0313 61.7849 23.7881C61.1979 23.5449 60.5687 23.4198 59.9334 23.4198ZM59.9334 25.6456C60.6262 25.6461 61.2905 25.9216 61.7805 26.4117C62.2704 26.9017 62.5458 27.5662 62.5463 28.2592V34.3469C62.5463 35.04 62.271 35.7048 61.781 36.1949C61.291 36.6851 60.6264 36.9604 59.9334 36.9604C59.2404 36.9604 58.5757 36.6851 58.0857 36.1949C57.5957 35.7048 57.3204 35.04 57.3204 34.3469V28.2592C57.3209 27.5662 57.5963 26.9017 58.0863 26.4117C58.5762 25.9216 59.2405 25.6461 59.9334 25.6456Z" fill="#BDACA8"/>
<path d="M72.6606 23.4198V39.1863H74.886V23.4198H72.6606Z" fill="#BDACA8"/>
<path fill-rule="evenodd" clip-rule="evenodd" d="M70.4872 42.0428C69.204 42.0428 67.9733 42.5527 67.066 43.4602C66.1586 44.3678 65.6488 45.5987 65.6488 46.8822V52.9681C65.6488 54.2515 66.1586 55.4825 67.066 56.39C67.9733 57.2976 69.204 57.8074 70.4872 57.8074C71.7704 57.8074 73.001 57.2976 73.9084 56.39C74.8157 55.4825 75.3255 54.2515 75.3255 52.9681V46.8822C75.3255 45.5987 74.8157 44.3678 73.9084 43.4602C73.001 42.5527 71.7704 42.0428 70.4872 42.0428ZM70.4872 44.2687C71.18 44.2691 71.8443 44.5446 72.3343 45.0347C72.8242 45.5247 73.0996 46.1892 73.1001 46.8822V52.9681C73.1001 53.6612 72.8248 54.326 72.3348 54.8161C71.8448 55.3062 71.1802 55.5816 70.4872 55.5816C69.7942 55.5816 69.1296 55.3062 68.6395 54.8161C68.1495 54.326 67.8742 53.6612 67.8742 52.9681V46.8822C67.8747 46.1892 68.1502 45.5247 68.6401 45.0347C69.13 44.5446 69.7943 44.2691 70.4872 44.2687Z" fill="#BDACA8"/>
<path d="M55.5327 42.0428V57.8093H57.7581V42.0428H55.5327Z" fill="#BDACA8"/>
<path fill-rule="evenodd" clip-rule="evenodd" d="M42.8054 42.0428C41.5221 42.0428 40.2912 42.5526 39.3836 43.4601C38.4759 44.3676 37.9658 45.5985 37.9653 46.8822V52.9681C37.9527 53.6117 38.0685 54.2513 38.3061 54.8496C38.5436 55.4479 38.8981 55.9928 39.3487 56.4524C39.7993 56.912 40.337 57.2772 40.9304 57.5264C41.5238 57.7757 42.1609 57.9041 42.8045 57.9041C43.4481 57.9041 44.0852 57.7757 44.6786 57.5264C45.272 57.2772 45.8098 56.912 46.2604 56.4524C46.711 55.9928 47.0654 55.4479 47.303 54.8496C47.5405 54.2513 47.6564 53.6117 47.6438 52.9681V46.8822C47.6438 46.2467 47.5186 45.6174 47.2755 45.0302C47.0323 44.4431 46.6759 43.9096 46.2267 43.4602C45.7774 43.0108 45.244 42.6544 44.657 42.4112C44.07 42.168 43.4408 42.0428 42.8054 42.0428ZM42.8054 44.2687C43.4983 44.2691 44.1626 44.5446 44.6525 45.0347C45.1425 45.5247 45.4179 46.1892 45.4184 46.8822V52.9681C45.4277 53.3172 45.367 53.6648 45.2398 53.9901C45.1126 54.3154 44.9216 54.612 44.6779 54.8623C44.4343 55.1125 44.143 55.3115 43.8212 55.4473C43.4995 55.5831 43.1538 55.6531 42.8045 55.6531C42.4553 55.6531 42.1096 55.5831 41.7878 55.4473C41.4661 55.3115 41.1748 55.1125 40.9311 54.8623C40.6875 54.612 40.4964 54.3154 40.3692 53.9901C40.2421 53.6648 40.1813 53.3172 40.1906 52.9681V46.8822C40.1916 46.189 40.4675 45.5245 40.9577 45.0346C41.4479 44.5446 42.1124 44.2691 42.8054 44.2687Z" fill="#BDACA8"/>
<path d="M27.851 42.0428V57.8093H30.0763V42.0428H27.851Z" fill="#BDACA8"/>
<path fill-rule="evenodd" clip-rule="evenodd" d="M18.5786 5.20853H85.7105V63.0809H18.5786V5.20853ZM20.804 7.43439V17.9831H83.4852V7.43439H20.804ZM20.804 60.855V20.209H83.4852V60.855H20.804Z" fill="#BDACA8"/>
<path d="M32.1096 96.904C32.6509 97.0813 33.0803 97.38 33.3976 97.8C33.7149 98.2107 33.8736 98.724 33.8736 99.34C33.8736 100.189 33.5469 100.847 32.8936 101.314C32.2403 101.771 31.2883 102 30.0376 102H25.1656V92.2H29.7576C30.9149 92.2 31.8063 92.4287 32.4316 92.886C33.0569 93.334 33.3696 93.9547 33.3696 94.748C33.3696 95.2333 33.2576 95.6627 33.0336 96.036C32.8096 96.4093 32.5016 96.6987 32.1096 96.904ZM26.9856 93.628V96.33H29.5616C30.1963 96.33 30.6816 96.218 31.0176 95.994C31.3629 95.7607 31.5356 95.4247 31.5356 94.986C31.5356 94.538 31.3629 94.202 31.0176 93.978C30.6816 93.7447 30.1963 93.628 29.5616 93.628H26.9856ZM29.9256 100.572C31.3349 100.572 32.0396 100.101 32.0396 99.158C32.0396 98.2153 31.3349 97.744 29.9256 97.744H26.9856V100.572H29.9256ZM35.816 92.2H37.636V102H35.816V92.2ZM48.9947 92.2V102H47.4967L42.0927 95.364V102H40.2867V92.2H41.7847L47.1887 98.836V92.2H48.9947ZM57.9767 99.732H53.0767L52.1107 102H50.2347L54.6447 92.2H56.4367L60.8607 102H58.9567L57.9767 99.732ZM57.3747 98.304L55.5267 94.02L53.6927 98.304H57.3747ZM68.519 102L66.517 99.13C66.433 99.1393 66.307 99.144 66.139 99.144H63.927V102H62.107V92.2H66.139C66.9883 92.2 67.7257 92.34 68.351 92.62C68.9857 92.9 69.471 93.3013 69.807 93.824C70.143 94.3467 70.311 94.9673 70.311 95.686C70.311 96.4233 70.129 97.058 69.765 97.59C69.4103 98.122 68.897 98.5187 68.225 98.78L70.479 102H68.519ZM68.477 95.686C68.477 95.0607 68.2717 94.58 67.861 94.244C67.4503 93.908 66.8483 93.74 66.055 93.74H63.927V97.646H66.055C66.8483 97.646 67.4503 97.478 67.861 97.142C68.2717 96.7967 68.477 96.3113 68.477 95.686ZM76.4385 98.542V102H74.6185V98.57L70.7685 92.2H72.7145L75.5845 96.974L78.4825 92.2H80.2745L76.4385 98.542Z" fill="#BDACA8"/>
</svg>
