<svg width="104" height="105" viewBox="0 0 104 105" fill="none" xmlns="http://www.w3.org/2000/svg">
<path d="M49.2147 11.8903C50.1741 11.7651 51.1521 11.7006 52.1447 11.7006C53.1372 11.7006 54.1152 11.7651 55.0747 11.8903L54.7868 14.0974C53.9225 13.9847 53.0407 13.9265 52.1447 13.9265C51.2487 13.9265 50.3668 13.9847 49.5026 14.0974L49.2147 11.8903Z" fill="#BDACA8"/>
<path d="M38.4805 16.3381C40.0245 15.1516 41.7278 14.161 43.5531 13.4041L44.4057 15.4602C42.7626 16.1416 41.2283 17.0336 39.8367 18.103L38.4805 16.3381Z" fill="#BDACA8"/>
<path d="M60.7363 13.4041C62.5615 14.161 64.2648 15.1516 65.8089 16.3381L64.4526 18.103C63.061 17.0336 61.5268 16.1416 59.8837 15.4602L60.7363 13.4041Z" fill="#BDACA8"/>
<path d="M31.4041 25.5531C32.161 23.7278 33.1515 22.0246 34.3381 20.4805L36.103 21.8368C35.0336 23.2284 34.1415 24.7626 33.4602 26.4057L31.4041 25.5531Z" fill="#BDACA8"/>
<path d="M69.9513 20.4805C71.1378 22.0246 72.1283 23.7278 72.8852 25.5531L70.8292 26.4057C70.1478 24.7626 69.2557 23.2284 68.1863 21.8368L69.9513 20.4805Z" fill="#BDACA8"/>
<path d="M29.7006 34.1447C29.7006 33.1522 29.7651 32.1741 29.8902 31.2147L32.0974 31.5026C31.9847 32.3668 31.9264 33.2487 31.9264 34.1447C31.9264 35.0407 31.9847 35.9226 32.0974 36.7868L29.8902 37.0747C29.7651 36.1153 29.7006 35.1372 29.7006 34.1447Z" fill="#BDACA8"/>
<path d="M74.3991 31.2147C74.5243 32.1741 74.5887 33.1522 74.5887 34.1447C74.5887 35.1372 74.5243 36.1153 74.3991 37.0747L72.1919 36.7868C72.3047 35.9226 72.3629 35.0407 72.3629 34.1447C72.3629 33.2487 72.3047 32.3668 72.1919 31.5026L74.3991 31.2147Z" fill="#BDACA8"/>
<path d="M34.3381 47.8089C33.1515 46.2648 32.161 44.5616 31.4041 42.7363L33.4602 41.8837C34.1415 43.5268 35.0336 45.061 36.103 46.4526L34.3381 47.8089Z" fill="#BDACA8"/>
<path d="M72.8852 42.7363C72.1283 44.5616 71.1378 46.2648 69.9513 47.8089L68.1863 46.4526C69.2557 45.061 70.1478 43.5268 70.8292 41.8837L72.8852 42.7363Z" fill="#BDACA8"/>
<path d="M43.553 54.8853C41.7278 54.1284 40.0245 53.1378 38.4805 51.9513L39.8367 50.1864C41.2283 51.2558 42.7626 52.1478 44.4057 52.8292L43.553 54.8853Z" fill="#BDACA8"/>
<path d="M65.8089 51.9513C64.2648 53.1378 62.5615 54.1284 60.7363 54.8853L59.8837 52.8292C61.5267 52.1478 63.061 51.2558 64.4526 50.1864L65.8089 51.9513Z" fill="#BDACA8"/>
<path d="M52.1447 56.5888C51.1521 56.5888 50.1741 56.5243 49.2147 56.3991L49.5026 54.192C50.3668 54.3047 51.2487 54.3629 52.1447 54.3629C53.0407 54.3629 53.9225 54.3047 54.7868 54.192L55.0747 56.3991C54.1152 56.5243 53.1372 56.5888 52.1447 56.5888Z" fill="#BDACA8"/>
<path fill-rule="evenodd" clip-rule="evenodd" d="M61.5396 35.9773C60.9372 34.9679 60.027 34.178 58.9428 33.7236C59.8417 33.1843 60.5711 32.4034 61.0481 31.47C61.5625 30.5302 61.8341 29.477 61.8383 28.4057C61.8569 27.5954 61.6996 26.7907 61.3771 26.0471C61.0547 25.3036 60.5747 24.6388 59.9704 24.0987C58.935 23.1465 57.6632 22.5902 56.1549 22.4298V20.1552H53.9291V22.381H51.2877V20.1552H49.0619V22.381H45.9215V22.6463H44.0833V24.8721H45.9215V43.3264H44.0833V45.5522H45.9215V45.938H49.0619V47.9784H51.2877V45.938H53.9291V47.9784H56.1549V45.9038C57.8228 45.7581 59.2479 45.1469 60.4304 44.0702C61.0885 43.4949 61.613 42.7829 61.9674 41.9838C62.3217 41.1848 62.4973 40.318 62.4819 39.4441C62.4978 38.2232 62.1714 37.0222 61.5396 35.9773ZM58.367 27.0147C58.6878 27.558 58.8524 28.1792 58.8427 28.8101C58.8511 29.2789 58.7612 29.7442 58.5788 30.1762C58.3964 30.6081 58.1255 30.997 57.7835 31.3179C57.4393 31.6542 57.0312 31.9183 56.5833 32.0945C56.1353 32.2706 55.6567 32.3553 55.1755 32.3436H48.8152V25.2784H55.1422C55.7978 25.2683 56.4454 25.424 57.0249 25.731C57.5819 26.0272 58.0463 26.4714 58.367 27.0147ZM58.2361 41.8981C57.446 42.6416 56.3936 43.0418 55.3091 43.011H48.817V35.2335H55.3091C56.3936 35.2027 57.446 35.6029 58.2361 36.3464C58.6177 36.6961 58.9201 37.1232 59.1233 37.5992C59.3264 38.0752 59.4255 38.5891 59.414 39.1065C59.4276 39.6288 59.3296 40.1481 59.1265 40.6295C58.9234 41.1109 58.6198 41.5434 58.2361 41.8981Z" fill="#BDACA8"/>
<path fill-rule="evenodd" clip-rule="evenodd" d="M23.2085 34.1447C23.2085 18.1637 36.1637 5.20853 52.1447 5.20853C68.1257 5.20853 81.0808 18.1637 81.0808 34.1447C81.0808 50.1257 68.1257 63.0809 52.1447 63.0809C36.1637 63.0809 23.2085 50.1257 23.2085 34.1447ZM52.1447 7.43439C37.393 7.43439 25.4344 19.393 25.4344 34.1447C25.4344 48.8964 37.393 60.855 52.1447 60.855C66.8964 60.855 78.855 48.8964 78.855 34.1447C78.855 19.393 66.8964 7.43439 52.1447 7.43439Z" fill="#BDACA8"/>
<path d="M28.2524 102.14C27.2631 102.14 26.3671 101.925 25.5644 101.496C24.7711 101.057 24.1457 100.455 23.6884 99.69C23.2404 98.9247 23.0164 98.0613 23.0164 97.1C23.0164 96.1387 23.2451 95.2753 23.7024 94.51C24.1597 93.7447 24.7851 93.1473 25.5784 92.718C26.3811 92.2793 27.2771 92.06 28.2664 92.06C29.0691 92.06 29.8017 92.2 30.4644 92.48C31.1271 92.76 31.6871 93.166 32.1444 93.698L30.9684 94.804C30.2591 94.0387 29.3864 93.656 28.3504 93.656C27.6784 93.656 27.0764 93.8053 26.5444 94.104C26.0124 94.3933 25.5971 94.7993 25.2984 95.322C24.9997 95.8447 24.8504 96.4373 24.8504 97.1C24.8504 97.7627 24.9997 98.3553 25.2984 98.878C25.5971 99.4007 26.0124 99.8113 26.5444 100.11C27.0764 100.399 27.6784 100.544 28.3504 100.544C29.3864 100.544 30.2591 100.157 30.9684 99.382L32.1444 100.502C31.6871 101.034 31.1224 101.44 30.4504 101.72C29.7877 102 29.0551 102.14 28.2524 102.14ZM40.3003 102L38.2983 99.13C38.2143 99.1393 38.0883 99.144 37.9203 99.144H35.7083V102H33.8883V92.2H37.9203C38.7696 92.2 39.5069 92.34 40.1323 92.62C40.7669 92.9 41.2523 93.3013 41.5883 93.824C41.9243 94.3467 42.0923 94.9673 42.0923 95.686C42.0923 96.4233 41.9103 97.058 41.5463 97.59C41.1916 98.122 40.6783 98.5187 40.0063 98.78L42.2603 102H40.3003ZM40.2583 95.686C40.2583 95.0607 40.0529 94.58 39.6423 94.244C39.2316 93.908 38.6296 93.74 37.8363 93.74H35.7083V97.646H37.8363C38.6296 97.646 39.2316 97.478 39.6423 97.142C40.0529 96.7967 40.2583 96.3113 40.2583 95.686ZM48.2198 98.542V102H46.3998V98.57L42.5498 92.2H44.4958L47.3658 96.974L50.2638 92.2H52.0558L48.2198 98.542ZM57.1429 92.2C57.9923 92.2 58.7296 92.34 59.3549 92.62C59.9896 92.9 60.4749 93.3013 60.8109 93.824C61.1469 94.3467 61.3149 94.9673 61.3149 95.686C61.3149 96.3953 61.1469 97.016 60.8109 97.548C60.4749 98.0707 59.9896 98.472 59.3549 98.752C58.7296 99.032 57.9923 99.172 57.1429 99.172H54.9309V102H53.1109V92.2H57.1429ZM57.0589 97.632C57.8523 97.632 58.4543 97.464 58.8649 97.128C59.2756 96.792 59.4809 96.3113 59.4809 95.686C59.4809 95.0607 59.2756 94.58 58.8649 94.244C58.4543 93.908 57.8523 93.74 57.0589 93.74H54.9309V97.632H57.0589ZM64.8333 93.74H61.5853V92.2H69.9013V93.74H66.6533V102H64.8333V93.74ZM75.7085 102.14C74.7098 102.14 73.8091 101.925 73.0065 101.496C72.2038 101.057 71.5738 100.455 71.1165 99.69C70.6591 98.9153 70.4305 98.052 70.4305 97.1C70.4305 96.148 70.6591 95.2893 71.1165 94.524C71.5738 93.7493 72.2038 93.1473 73.0065 92.718C73.8091 92.2793 74.7098 92.06 75.7085 92.06C76.7071 92.06 77.6078 92.2793 78.4105 92.718C79.2131 93.1473 79.8431 93.7447 80.3005 94.51C80.7578 95.2753 80.9865 96.1387 80.9865 97.1C80.9865 98.0613 80.7578 98.9247 80.3005 99.69C79.8431 100.455 79.2131 101.057 78.4105 101.496C77.6078 101.925 76.7071 102.14 75.7085 102.14ZM75.7085 100.544C76.3618 100.544 76.9498 100.399 77.4725 100.11C77.9951 99.8113 78.4058 99.4007 78.7045 98.878C79.0031 98.346 79.1525 97.7533 79.1525 97.1C79.1525 96.4467 79.0031 95.8587 78.7045 95.336C78.4058 94.804 77.9951 94.3933 77.4725 94.104C76.9498 93.8053 76.3618 93.656 75.7085 93.656C75.0551 93.656 74.4671 93.8053 73.9445 94.104C73.4218 94.3933 73.0111 94.804 72.7125 95.336C72.4138 95.8587 72.2645 96.4467 72.2645 97.1C72.2645 97.7533 72.4138 98.346 72.7125 98.878C73.0111 99.4007 73.4218 99.8113 73.9445 100.11C74.4671 100.399 75.0551 100.544 75.7085 100.544Z" fill="#BDACA8"/>
</svg>
