<svg width="104" height="105" viewBox="0 0 104 105" fill="none" xmlns="http://www.w3.org/2000/svg">
<path fill-rule="evenodd" clip-rule="evenodd" d="M18.2893 5.2085H85.6279V62.9882H18.2893V5.2085ZM20.5215 7.43079V14.3421H83.3957V7.43079H20.5215ZM83.3957 16.5644H20.5215V60.7659H83.3957V16.5644ZM48.387 25.8414C49.5698 25.8394 50.7413 26.0699 51.8345 26.5197C52.9276 26.9695 53.9208 27.6296 54.7571 28.4623C55.5934 29.2951 56.2564 30.284 56.7079 31.3723C57.1595 32.4607 57.3908 33.6271 57.3887 34.8046C57.3865 35.9822 57.1508 37.1477 56.6951 38.2344C56.2398 39.3203 55.5738 40.3062 54.7351 41.1355C54.7346 41.136 54.734 41.1366 54.7335 41.1371L43.1214 52.6994L43.1212 52.6997C42.4846 53.3332 41.6213 53.689 40.7212 53.689C39.8212 53.689 38.9579 53.3332 38.3213 52.6997L38.3211 52.6995L26.7043 41.1343C25.0192 39.4562 24.0725 37.1804 24.0725 34.8077C24.0725 32.4349 25.0191 30.1592 26.7042 28.4811L26.7044 28.4809C28.39 26.8034 30.6758 25.861 33.0592 25.861C35.4425 25.861 37.7283 26.8034 39.4139 28.4809L40.7212 29.7824L42.0257 28.4837C42.0262 28.4832 42.0267 28.4828 42.0272 28.4823C42.8604 27.6474 43.8508 26.9844 44.9418 26.5313C46.0334 26.0779 47.2041 25.8434 48.387 25.8414ZM50.9819 28.5735C50.1603 28.2355 49.2797 28.0622 48.3907 28.0637C47.5017 28.0652 46.6218 28.2414 45.8013 28.5822C44.9809 28.923 44.236 29.4217 43.6096 30.0497L43.6082 30.0511L40.7212 32.9252L37.8357 30.0525C37.8357 30.0525 37.8358 30.0526 37.8357 30.0525C36.5688 28.7917 34.8506 28.0833 33.0592 28.0833C31.2677 28.0833 29.5495 28.7916 28.2826 30.0525C27.0162 31.3139 26.3047 33.0243 26.3047 34.8077C26.3047 36.5911 27.0162 38.3015 28.2827 39.5629M28.2827 39.5629L39.8993 51.1279C39.8994 51.128 39.8995 51.128 39.8995 51.1281C40.1175 51.3449 40.4131 51.4667 40.7212 51.4667C41.0295 51.4667 41.3251 51.3448 41.5431 51.1279L53.1593 39.5615L53.1608 39.56C53.7917 38.9365 54.2927 38.1951 54.6352 37.3783C54.9777 36.5616 55.1548 35.6855 55.1564 34.8005C55.1581 33.9154 54.9842 33.0388 54.6448 32.2208C54.3054 31.4028 53.8071 30.6595 53.1786 30.0336C52.55 29.4077 51.8035 28.9116 50.9819 28.5735M78.749 28.6297H61.7971V26.4074H78.749V28.6297ZM78.749 35.0817H61.7971V32.8594H78.749V35.0817ZM78.749 41.5338H61.7971V39.3115H78.749V41.5338ZM73.1684 47.984H61.7971V45.7617H73.1684V47.984Z" fill="#BDACA8"/>
<path d="M25.0836 92.2H29.3676C30.4129 92.2 31.3416 92.4053 32.1536 92.816C32.9656 93.2173 33.5956 93.7913 34.0436 94.538C34.4916 95.2753 34.7156 96.1293 34.7156 97.1C34.7156 98.0707 34.4916 98.9293 34.0436 99.676C33.5956 100.413 32.9656 100.987 32.1536 101.398C31.3416 101.799 30.4129 102 29.3676 102H25.0836V92.2ZM29.2836 100.46C30.0022 100.46 30.6322 100.325 31.1736 100.054C31.7242 99.774 32.1442 99.382 32.4336 98.878C32.7322 98.3647 32.8816 97.772 32.8816 97.1C32.8816 96.428 32.7322 95.84 32.4336 95.336C32.1442 94.8227 31.7242 94.4307 31.1736 94.16C30.6322 93.88 30.0022 93.74 29.2836 93.74H26.9036V100.46H29.2836ZM42.8693 99.732H37.9693L37.0033 102H35.1273L39.5373 92.2H41.3293L45.7533 102H43.8493L42.8693 99.732ZM42.2673 98.304L40.4193 94.02L38.5853 98.304H42.2673ZM48.4954 93.74H45.2474V92.2H53.5634V93.74H50.3154V102H48.4954V93.74ZM54.9293 92.2H56.7493V102H54.9293V92.2ZM68.108 92.2V102H66.61L61.206 95.364V102H59.4V92.2H60.898L66.302 98.836V92.2H68.108ZM77.426 96.988H79.148V100.894C78.644 101.295 78.056 101.603 77.384 101.818C76.712 102.033 76.0213 102.14 75.312 102.14C74.3133 102.14 73.4126 101.925 72.61 101.496C71.8073 101.057 71.1773 100.455 70.72 99.69C70.2626 98.9247 70.034 98.0613 70.034 97.1C70.034 96.1387 70.2626 95.2753 70.72 94.51C71.1773 93.7447 71.8073 93.1473 72.61 92.718C73.422 92.2793 74.332 92.06 75.34 92.06C76.1613 92.06 76.908 92.1953 77.58 92.466C78.252 92.7367 78.8166 93.1333 79.274 93.656L78.126 94.776C77.3793 94.0293 76.4786 93.656 75.424 93.656C74.7333 93.656 74.1173 93.8007 73.576 94.09C73.044 94.3793 72.624 94.7853 72.316 95.308C72.0173 95.8307 71.868 96.428 71.868 97.1C71.868 97.7533 72.0173 98.3413 72.316 98.864C72.624 99.3867 73.044 99.7973 73.576 100.096C74.1173 100.395 74.7286 100.544 75.41 100.544C76.1753 100.544 76.8473 100.376 77.426 100.04V96.988Z" fill="#BDACA8"/>
</svg>
