<svg width="104" height="105" viewBox="0 0 104 105" fill="none" xmlns="http://www.w3.org/2000/svg">
<path d="M64.0745 12.565C64.0745 13.6724 63.177 14.5701 62.0698 14.5701C60.9627 14.5701 60.0651 13.6724 60.0651 12.565C60.0651 11.4576 60.9627 10.5599 62.0698 10.5599C63.177 10.5599 64.0745 11.4576 64.0745 12.565Z" fill="#BDACA8"/>
<path d="M69.6546 14.5701C70.7618 14.5701 71.6593 13.6724 71.6593 12.565C71.6593 11.4576 70.7618 10.5599 69.6546 10.5599C68.5475 10.5599 67.6499 11.4576 67.6499 12.565C67.6499 13.6724 68.5475 14.5701 69.6546 14.5701Z" fill="#BDACA8"/>
<path d="M79.2441 12.565C79.2441 13.6724 78.3466 14.5701 77.2394 14.5701C76.1322 14.5701 75.2347 13.6724 75.2347 12.565C75.2347 11.4576 76.1322 10.5599 77.2394 10.5599C78.3466 10.5599 79.2441 11.4576 79.2441 12.565Z" fill="#BDACA8"/>
<path fill-rule="evenodd" clip-rule="evenodd" d="M18.5787 5.20853V63.0809H85.7107V5.20853H18.5787ZM20.8041 17.9831V7.43439H83.4853V17.9831H20.8041ZM20.8041 20.209V60.855H83.4853V20.209H20.8041Z" fill="#BDACA8"/>
<path d="M62.8247 48.519H43.2115L39.722 28.0635H35.2699" stroke="#BDACA8" stroke-width="1.3" stroke-miterlimit="10" stroke-linecap="round" stroke-linejoin="round"/>
<path d="M40.5643 30.7107H65.472L62.8248 44.0669H43.2115" stroke="#BDACA8" stroke-width="1.3" stroke-miterlimit="10" stroke-linecap="round" stroke-linejoin="round"/>
<path d="M46.8213 30.7107V44.0669" stroke="#BDACA8" stroke-width="1.3" stroke-miterlimit="10" stroke-linecap="round" stroke-linejoin="round"/>
<path d="M52.9579 30.7107V44.0669" stroke="#BDACA8" stroke-width="1.3" stroke-miterlimit="10" stroke-linecap="round" stroke-linejoin="round"/>
<path d="M63.6669 36.9677H41.4065" stroke="#BDACA8" stroke-width="1.3" stroke-miterlimit="10" stroke-linecap="round" stroke-linejoin="round"/>
<path d="M59.215 30.7107V44.0669" stroke="#BDACA8" stroke-width="1.3" stroke-miterlimit="10" stroke-linecap="round" stroke-linejoin="round"/>
<path d="M47.1822 52.8508C48.3784 52.8508 49.3481 51.8811 49.3481 50.6849C49.3481 49.4887 48.3784 48.519 47.1822 48.519C45.9861 48.519 45.0164 49.4887 45.0164 50.6849C45.0164 51.8811 45.9861 52.8508 47.1822 52.8508Z" stroke="#BDACA8" stroke-width="1.3" stroke-miterlimit="10" stroke-linecap="round" stroke-linejoin="round"/>
<path d="M58.854 52.8508C60.0502 52.8508 61.0199 51.8811 61.0199 50.6849C61.0199 49.4887 60.0502 48.519 58.854 48.519C57.6578 48.519 56.6881 49.4887 56.6881 50.6849C56.6881 51.8811 57.6578 52.8508 58.854 52.8508Z" stroke="#BDACA8" stroke-width="1.3" stroke-miterlimit="10" stroke-linecap="round" stroke-linejoin="round"/>
<path d="M12.165 100.474V102H4.81502V92.2H11.969V93.726H6.63502V96.274H11.367V97.772H6.63502V100.474H12.165ZM18.6889 102.14C17.6996 102.14 16.8036 101.925 16.0009 101.496C15.2076 101.057 14.5822 100.455 14.1249 99.69C13.6769 98.9247 13.4529 98.0613 13.4529 97.1C13.4529 96.1387 13.6816 95.2753 14.1389 94.51C14.5962 93.7447 15.2216 93.1473 16.0149 92.718C16.8176 92.2793 17.7136 92.06 18.7029 92.06C19.5056 92.06 20.2382 92.2 20.9009 92.48C21.5636 92.76 22.1236 93.166 22.5809 93.698L21.4049 94.804C20.6956 94.0387 19.8229 93.656 18.7869 93.656C18.1149 93.656 17.5129 93.8053 16.9809 94.104C16.4489 94.3933 16.0336 94.7993 15.7349 95.322C15.4362 95.8447 15.2869 96.4373 15.2869 97.1C15.2869 97.7627 15.4362 98.3553 15.7349 98.878C16.0336 99.4007 16.4489 99.8113 16.9809 100.11C17.5129 100.399 18.1149 100.544 18.7869 100.544C19.8229 100.544 20.6956 100.157 21.4049 99.382L22.5809 100.502C22.1236 101.034 21.5589 101.44 20.8869 101.72C20.2242 102 19.4916 102.14 18.6889 102.14ZM28.6977 102.14C27.699 102.14 26.7984 101.925 25.9957 101.496C25.193 101.057 24.563 100.455 24.1057 99.69C23.6484 98.9153 23.4197 98.052 23.4197 97.1C23.4197 96.148 23.6484 95.2893 24.1057 94.524C24.563 93.7493 25.193 93.1473 25.9957 92.718C26.7984 92.2793 27.699 92.06 28.6977 92.06C29.6964 92.06 30.597 92.2793 31.3997 92.718C32.2024 93.1473 32.8324 93.7447 33.2897 94.51C33.747 95.2753 33.9757 96.1387 33.9757 97.1C33.9757 98.0613 33.747 98.9247 33.2897 99.69C32.8324 100.455 32.2024 101.057 31.3997 101.496C30.597 101.925 29.6964 102.14 28.6977 102.14ZM28.6977 100.544C29.351 100.544 29.939 100.399 30.4617 100.11C30.9844 99.8113 31.395 99.4007 31.6937 98.878C31.9924 98.346 32.1417 97.7533 32.1417 97.1C32.1417 96.4467 31.9924 95.8587 31.6937 95.336C31.395 94.804 30.9844 94.3933 30.4617 94.104C29.939 93.8053 29.351 93.656 28.6977 93.656C28.0444 93.656 27.4564 93.8053 26.9337 94.104C26.411 94.3933 26.0004 94.804 25.7017 95.336C25.403 95.8587 25.2537 96.4467 25.2537 97.1C25.2537 97.7533 25.403 98.346 25.7017 98.878C26.0004 99.4007 26.411 99.8113 26.9337 100.11C27.4564 100.399 28.0444 100.544 28.6977 100.544ZM44.9069 102L44.8929 95.504L41.6729 100.88H40.8609L37.6409 95.588V102H35.9049V92.2H37.4029L41.2949 98.696L45.1169 92.2H46.6149L46.6289 102H44.9069ZM58.278 102L58.264 95.504L55.044 100.88H54.232L51.012 95.588V102H49.276V92.2H50.774L54.666 98.696L58.488 92.2H59.986L60 102H58.278ZM69.9971 100.474V102H62.6471V92.2H69.8011V93.726H64.4671V96.274H69.1991V97.772H64.4671V100.474H69.9971ZM78.438 102L76.436 99.13C76.352 99.1393 76.226 99.144 76.058 99.144H73.846V102H72.026V92.2H76.058C76.9073 92.2 77.6446 92.34 78.27 92.62C78.9046 92.9 79.39 93.3013 79.726 93.824C80.062 94.3467 80.23 94.9673 80.23 95.686C80.23 96.4233 80.048 97.058 79.684 97.59C79.3293 98.122 78.816 98.5187 78.144 98.78L80.398 102H78.438ZM78.396 95.686C78.396 95.0607 78.1906 94.58 77.78 94.244C77.3693 93.908 76.7673 93.74 75.974 93.74H73.846V97.646H75.974C76.7673 97.646 77.3693 97.478 77.78 97.142C78.1906 96.7967 78.396 96.3113 78.396 95.686ZM86.8022 102.14C85.8129 102.14 84.9169 101.925 84.1142 101.496C83.3209 101.057 82.6955 100.455 82.2382 99.69C81.7902 98.9247 81.5662 98.0613 81.5662 97.1C81.5662 96.1387 81.7949 95.2753 82.2522 94.51C82.7095 93.7447 83.3349 93.1473 84.1282 92.718C84.9309 92.2793 85.8269 92.06 86.8162 92.06C87.6189 92.06 88.3515 92.2 89.0142 92.48C89.6769 92.76 90.2369 93.166 90.6942 93.698L89.5182 94.804C88.8089 94.0387 87.9362 93.656 86.9002 93.656C86.2282 93.656 85.6262 93.8053 85.0942 94.104C84.5622 94.3933 84.1469 94.7993 83.8482 95.322C83.5495 95.8447 83.4002 96.4373 83.4002 97.1C83.4002 97.7627 83.5495 98.3553 83.8482 98.878C84.1469 99.4007 84.5622 99.8113 85.0942 100.11C85.6262 100.399 86.2282 100.544 86.9002 100.544C87.9362 100.544 88.8089 100.157 89.5182 99.382L90.6942 100.502C90.2369 101.034 89.6722 101.44 89.0002 101.72C88.3375 102 87.6049 102.14 86.8022 102.14ZM99.7881 100.474V102H92.4381V92.2H99.5921V93.726H94.2581V96.274H98.9901V97.772H94.2581V100.474H99.7881Z" fill="#BDACA8"/>
</svg>
