<svg width="104" height="105" viewBox="0 0 104 105" fill="none" xmlns="http://www.w3.org/2000/svg">
<path d="M84.7105 62.0809H19.5786V6.20851H84.7105V62.0809Z" stroke="#BDACA8" stroke-width="2"/>
<path d="M39.5873 27.7037H35.2698C33.4815 27.7037 32.0317 26.2539 32.0317 24.4656V24.4656C32.0317 22.6772 33.4815 21.2275 35.2698 21.2275H66.9312C68.7196 21.2275 70.1693 22.6772 70.1693 24.4656V24.4656C70.1693 26.2539 68.7196 27.7037 66.9312 27.7037H62.6137" stroke="#BDACA8" stroke-width="1.5"/>
<path d="M39.5873 30.582H31.873C30.7685 30.582 29.873 29.6866 29.873 28.582V20.3492C29.873 19.2446 30.7685 18.3492 31.873 18.3492H71.0476C72.1522 18.3492 73.0476 19.2446 73.0476 20.3492V28.582C73.0476 29.6866 72.1522 30.582 71.0476 30.582H62.6138" stroke="#BDACA8" stroke-width="1.5"/>
<path d="M39.2275 21.2275V50.1693C39.2275 51.2738 40.123 52.1693 41.2275 52.1693H60.9736C62.0781 52.1693 62.9736 51.2738 62.9736 50.1693V21.2275" stroke="#BDACA8" stroke-width="1.5"/>
<line x1="58.6865" y1="21.2274" x2="58.6865" y2="52.1692" stroke="#BDACA8" stroke-width="1.5"/>
<line x1="54.3691" y1="21.2274" x2="54.3691" y2="52.1692" stroke="#BDACA8" stroke-width="1.5"/>
<line x1="44.2949" y1="42.8148" x2="44.2949" y2="47.8518" stroke="#BDACA8" stroke-width="1.5"/>
<path d="M47.0556 100.474V102H39.7056V92.2H46.8596V93.726H41.5256V96.274H46.2576V97.772H41.5256V100.474H47.0556ZM58.0866 102L58.0726 95.504L54.8526 100.88H54.0406L50.8206 95.588V102H49.0846V92.2H50.5826L54.4746 98.696L58.2966 92.2H59.7946L59.8086 102H58.0866ZM62.4556 92.2H64.2756V102H62.4556V92.2Z" fill="#BDACA8"/>
</svg>
