<svg width="104" height="105" viewBox="0 0 104 105" fill="none" xmlns="http://www.w3.org/2000/svg">
<path fill-rule="evenodd" clip-rule="evenodd" d="M18.5786 5.20847H85.6179V62.9882H18.5786V5.20847ZM20.8009 7.43076V60.7659H83.3956V7.43076H20.8009ZM76.667 14.7272L58.608 29.6163L50.8337 23.6418L41.23 33.4869L36.408 28.6199L28.5827 35.4268V39.7782H78.1714V42.0005H26.3604V14.6366H28.5827V32.4814L36.5208 25.5763L41.2177 30.317L50.622 20.6763L58.5594 26.7762L75.2534 13.0125L76.667 14.7272ZM40.346 49.1322H26.0511V46.9099H40.346V49.1322ZM59.2596 49.1322H44.9628V46.9099H59.2596V49.1322ZM78.1714 49.1322H63.8765V46.9099H78.1714V49.1322ZM40.346 55.438H26.0511V53.2157H40.346V55.438ZM59.2596 55.438H44.9628V53.2157H59.2596V55.438ZM78.1714 55.438H63.8765V53.2157H78.1714V55.438Z" fill="#BDACA8"/>
<path d="M30.2327 93.726V96.708H34.9647V98.248H30.2327V102H28.4127V92.2H35.5667V93.726H30.2327ZM41.7954 102.14C40.7967 102.14 39.896 101.925 39.0934 101.496C38.2907 101.057 37.6607 100.455 37.2034 99.69C36.746 98.9153 36.5174 98.052 36.5174 97.1C36.5174 96.148 36.746 95.2893 37.2034 94.524C37.6607 93.7493 38.2907 93.1473 39.0934 92.718C39.896 92.2793 40.7967 92.06 41.7954 92.06C42.794 92.06 43.6947 92.2793 44.4974 92.718C45.3 93.1473 45.93 93.7447 46.3874 94.51C46.8447 95.2753 47.0734 96.1387 47.0734 97.1C47.0734 98.0613 46.8447 98.9247 46.3874 99.69C45.93 100.455 45.3 101.057 44.4974 101.496C43.6947 101.925 42.794 102.14 41.7954 102.14ZM41.7954 100.544C42.4487 100.544 43.0367 100.399 43.5594 100.11C44.082 99.8113 44.4927 99.4007 44.7914 98.878C45.09 98.346 45.2394 97.7533 45.2394 97.1C45.2394 96.4467 45.09 95.8587 44.7914 95.336C44.4927 94.804 44.082 94.3933 43.5594 94.104C43.0367 93.8053 42.4487 93.656 41.7954 93.656C41.142 93.656 40.554 93.8053 40.0314 94.104C39.5087 94.3933 39.098 94.804 38.7994 95.336C38.5007 95.8587 38.3514 96.4467 38.3514 97.1C38.3514 97.7533 38.5007 98.346 38.7994 98.878C39.098 99.4007 39.5087 99.8113 40.0314 100.11C40.554 100.399 41.142 100.544 41.7954 100.544ZM55.4145 102L53.4125 99.13C53.3285 99.1393 53.2025 99.144 53.0345 99.144H50.8225V102H49.0025V92.2H53.0345C53.8839 92.2 54.6212 92.34 55.2465 92.62C55.8812 92.9 56.3665 93.3013 56.7025 93.824C57.0385 94.3467 57.2065 94.9673 57.2065 95.686C57.2065 96.4233 57.0245 97.058 56.6605 97.59C56.3059 98.122 55.7925 98.5187 55.1205 98.78L57.3745 102H55.4145ZM55.3725 95.686C55.3725 95.0607 55.1672 94.58 54.7565 94.244C54.3459 93.908 53.7439 93.74 52.9505 93.74H50.8225V97.646H52.9505C53.7439 97.646 54.3459 97.478 54.7565 97.142C55.1672 96.7967 55.3725 96.3113 55.3725 95.686ZM66.5928 100.474V102H59.2428V92.2H66.3968V93.726H61.0628V96.274H65.7948V97.772H61.0628V100.474H66.5928ZM74.6863 102L72.0263 98.276L69.3943 102H67.3223L70.9623 97.002L67.5183 92.2H69.5763L72.0823 95.686L74.5603 92.2H76.5343L73.1043 96.932L76.7863 102H74.6863Z" fill="#BDACA8"/>
</svg>
