<svg width="104" height="105" viewBox="0 0 104 105" fill="none" xmlns="http://www.w3.org/2000/svg">
<path fill-rule="evenodd" clip-rule="evenodd" d="M26.972 25.1912C25.9764 27.9902 25.4344 31.0041 25.4344 34.1447C25.4344 37.4607 26.0386 40.6355 27.143 43.5652L33.42 40.8961L34.291 42.9445L28.0149 45.6132C30.7228 51.3005 35.3822 55.8794 41.1272 58.4841L43.6781 52.1585L45.7425 52.991L43.1912 59.3174C45.9902 60.313 49.0041 60.855 52.1447 60.855C55.4607 60.855 58.6355 60.2507 61.5652 59.1463L58.8961 52.8693L60.9445 51.9983L63.6132 58.2745C69.3005 55.5666 73.8794 50.9071 76.4841 45.1621L70.1585 42.6112L70.991 40.5469L77.3174 43.0981C78.313 40.2992 78.855 37.2852 78.855 34.1447C78.855 30.8287 78.2507 27.6538 77.1463 24.7242L70.8693 27.3932L69.9983 25.3448L76.2745 22.6762C73.5666 16.9888 68.9071 12.4099 63.1621 9.80525L60.6112 16.1308L58.5469 15.2983L61.0981 8.97195C58.2992 7.97637 55.2852 7.43436 52.1447 7.43436C48.8287 7.43436 45.6538 8.03862 42.7242 9.14303L45.3932 15.42L43.3448 16.291L40.6762 10.0149C34.9888 12.7228 30.4099 17.3822 27.8053 23.1272L34.1308 25.6781L33.2983 27.7425L26.972 25.1912ZM23.2085 34.1447C23.2085 18.1637 36.1637 5.2085 52.1447 5.2085C68.1257 5.2085 81.0808 18.1637 81.0808 34.1447C81.0808 50.1257 68.1257 63.0808 52.1447 63.0808C36.1637 63.0808 23.2085 50.1257 23.2085 34.1447ZM52.1447 16.7088C42.5151 16.7088 34.7088 24.5151 34.7088 34.1447C34.7088 43.7743 42.5151 51.5806 52.1447 51.5806C61.7743 51.5806 69.5806 43.7743 69.5806 34.1447C69.5806 24.5151 61.7743 16.7088 52.1447 16.7088ZM32.4829 34.1447C32.4829 23.2858 41.2858 14.4829 52.1447 14.4829C63.0036 14.4829 71.8064 23.2858 71.8064 34.1447C71.8064 45.0036 63.0036 53.8064 52.1447 53.8064C41.2858 53.8064 32.4829 45.0036 32.4829 34.1447ZM52.1318 21.8186L61.032 30.2674L61.0449 30.2806C62.0309 31.2808 62.5837 32.6289 62.5837 34.0334C62.5837 35.4379 62.0309 36.786 61.0449 37.7862L61.0362 37.795L61.0273 37.8037C60.035 38.7663 58.7069 39.3047 57.3244 39.3047C55.942 39.3047 54.6138 38.7663 53.6216 37.8037L53.6145 37.7969L53.2576 37.4382V42.998H56.7819V45.2239H47.5075V42.998H51.0317V37.423L50.6517 37.807L50.6415 37.8168C49.6433 38.7756 48.3092 39.3051 46.9253 39.2919C45.5413 39.2786 44.2176 38.7238 43.2379 37.7462C42.2582 36.7686 41.7004 35.4462 41.6842 34.0622C41.6679 32.6783 42.1945 31.3431 43.151 30.3428L43.1697 30.3232L52.1318 21.8186ZM44.7426 31.8992C44.1992 32.4767 43.9005 33.2426 43.9099 34.0361C43.9193 34.8379 44.2424 35.6042 44.8101 36.1706C45.3777 36.737 46.1447 37.0584 46.9465 37.0661C47.744 37.0737 48.5129 36.7703 49.0902 36.2206L52.1294 33.1489L55.1779 36.2124C55.7542 36.7681 56.5236 37.0788 57.3244 37.0788C58.1241 37.0788 58.8925 36.769 59.4685 36.2147C60.0385 35.6319 60.3578 34.8489 60.3578 34.0334C60.3578 33.2194 60.0397 32.4378 59.4717 31.8553L52.1315 24.8874L44.7426 31.8992Z" fill="#BDACA8"/>
<path d="M19.8469 96.988H21.5689V100.894C21.0649 101.295 20.4769 101.603 19.8049 101.818C19.1329 102.033 18.4422 102.14 17.7329 102.14C16.7342 102.14 15.8335 101.925 15.0309 101.496C14.2282 101.057 13.5982 100.455 13.1409 99.69C12.6835 98.9247 12.4549 98.0613 12.4549 97.1C12.4549 96.1387 12.6835 95.2753 13.1409 94.51C13.5982 93.7447 14.2282 93.1473 15.0309 92.718C15.8429 92.2793 16.7529 92.06 17.7609 92.06C18.5822 92.06 19.3289 92.1953 20.0009 92.466C20.6729 92.7367 21.2375 93.1333 21.6949 93.656L20.5469 94.776C19.8002 94.0293 18.8995 93.656 17.8449 93.656C17.1542 93.656 16.5382 93.8007 15.9969 94.09C15.4649 94.3793 15.0449 94.7853 14.7369 95.308C14.4382 95.8307 14.2889 96.428 14.2889 97.1C14.2889 97.7533 14.4382 98.3413 14.7369 98.864C15.0449 99.3867 15.4649 99.7973 15.9969 100.096C16.5382 100.395 17.1495 100.544 17.8309 100.544C18.5962 100.544 19.2682 100.376 19.8469 100.04V96.988ZM30.3253 99.732H25.4253L24.4593 102H22.5833L26.9933 92.2H28.7853L33.2093 102H31.3053L30.3253 99.732ZM29.7233 98.304L27.8753 94.02L26.0413 98.304H29.7233ZM43.4576 102L43.4436 95.504L40.2236 100.88H39.4116L36.1916 95.588V102H34.4556V92.2H35.9536L39.8456 98.696L43.6676 92.2H45.1656L45.1796 102H43.4576ZM54.7707 96.904C55.3121 97.0813 55.7414 97.38 56.0587 97.8C56.3761 98.2107 56.5347 98.724 56.5347 99.34C56.5347 100.189 56.2081 100.847 55.5547 101.314C54.9014 101.771 53.9494 102 52.6987 102H47.8267V92.2H52.4187C53.5761 92.2 54.4674 92.4287 55.0927 92.886C55.7181 93.334 56.0307 93.9547 56.0307 94.748C56.0307 95.2333 55.9187 95.6627 55.6947 96.036C55.4707 96.4093 55.1627 96.6987 54.7707 96.904ZM49.6467 93.628V96.33H52.2227C52.8574 96.33 53.3427 96.218 53.6787 95.994C54.0241 95.7607 54.1967 95.4247 54.1967 94.986C54.1967 94.538 54.0241 94.202 53.6787 93.978C53.3427 93.7447 52.8574 93.628 52.2227 93.628H49.6467ZM52.5867 100.572C53.9961 100.572 54.7007 100.101 54.7007 99.158C54.7007 98.2153 53.9961 97.744 52.5867 97.744H49.6467V100.572H52.5867ZM58.4771 92.2H60.2971V100.46H65.4211V102H58.4771V92.2ZM66.858 92.2H68.678V102H66.858V92.2ZM80.0367 92.2V102H78.5387L73.1347 95.364V102H71.3287V92.2H72.8267L78.2307 98.836V92.2H80.0367ZM89.3547 96.988H91.0767V100.894C90.5727 101.295 89.9847 101.603 89.3127 101.818C88.6407 102.033 87.95 102.14 87.2407 102.14C86.242 102.14 85.3413 101.925 84.5387 101.496C83.736 101.057 83.106 100.455 82.6487 99.69C82.1913 98.9247 81.9627 98.0613 81.9627 97.1C81.9627 96.1387 82.1913 95.2753 82.6487 94.51C83.106 93.7447 83.736 93.1473 84.5387 92.718C85.3507 92.2793 86.2607 92.06 87.2687 92.06C88.09 92.06 88.8367 92.1953 89.5087 92.466C90.1807 92.7367 90.7453 93.1333 91.2027 93.656L90.0547 94.776C89.308 94.0293 88.4073 93.656 87.3527 93.656C86.662 93.656 86.046 93.8007 85.5047 94.09C84.9727 94.3793 84.5527 94.7853 84.2447 95.308C83.946 95.8307 83.7967 96.428 83.7967 97.1C83.7967 97.7533 83.946 98.3413 84.2447 98.864C84.5527 99.3867 84.9727 99.7973 85.5047 100.096C86.046 100.395 86.6573 100.544 87.3387 100.544C88.104 100.544 88.776 100.376 89.3547 100.04V96.988Z" fill="#BDACA8"/>
</svg>
