<svg width="104" height="105" viewBox="0 0 104 105" fill="none" xmlns="http://www.w3.org/2000/svg">
<path fill-rule="evenodd" clip-rule="evenodd" d="M57.0251 15.8242C56.0113 15.8242 55.039 16.229 54.3222 16.9495C53.6053 17.6701 53.2026 18.6474 53.2026 19.6664V27.6594H54.8541V30.3715H63.0802C64.3741 30.3576 65.6579 30.6015 66.8575 31.0892C68.0582 31.5774 69.1507 32.3002 70.0717 33.2157C70.9926 34.1311 71.7238 35.2212 72.2228 36.4226C72.7218 37.624 72.9787 38.913 72.9787 40.215C72.9787 41.5169 72.7218 42.8059 72.2228 44.0074C71.7238 45.2088 70.9926 46.2988 70.0717 47.2143C69.1507 48.1298 68.0582 48.8525 66.8575 49.3407C65.6581 49.8284 64.3746 50.0723 63.0809 50.0584C61.2655 50.0624 59.4849 49.5572 57.9396 48.5994C56.3943 47.6417 55.1455 46.2696 54.3338 44.6375H50.7222C49.9397 46.2019 48.7561 47.5283 47.2936 48.4797C45.8301 49.4318 44.1403 49.9739 42.3987 50.0502C40.6572 50.1265 38.9269 49.7342 37.3865 48.9137C35.8462 48.0933 34.5517 46.8744 33.6366 45.383C32.7215 43.8917 32.219 42.1818 32.181 40.43C32.1431 38.6782 32.571 36.948 33.4206 35.4179C34.2701 33.8879 35.5106 32.6135 37.0139 31.7264C38.5173 30.8393 40.2289 30.3716 41.9721 30.3715H50.2019V27.6594H51.8534V19.6664C51.8534 18.2877 52.3983 16.9655 53.3682 15.9906C54.3381 15.0158 55.6535 14.4681 57.0251 14.4681H72.2029V15.8242H57.0251ZM51.551 29.0154V31.7276H41.9722C40.4691 31.7276 38.9932 32.1309 37.697 32.8958C36.4008 33.6608 35.3312 34.7596 34.5986 36.0788C33.8661 37.3981 33.4971 38.89 33.5299 40.4005C33.5626 41.9109 33.9959 43.3853 34.7849 44.6712C35.5739 45.9571 36.6901 47.0081 38.0183 47.7155C39.3464 48.4229 40.8383 48.7612 42.34 48.6954C43.8417 48.6297 45.2987 48.1622 46.5605 47.3413C47.8224 46.5204 48.8434 45.3758 49.5181 44.0258L49.5189 44.0242L49.5197 44.0227C49.632 43.8006 49.8031 43.6139 50.0142 43.4832C50.2252 43.3524 50.468 43.2826 50.7159 43.2814L50.7175 43.2814H54.3386L54.3401 43.2814C54.588 43.2826 54.8308 43.3524 55.0419 43.4832C55.2529 43.6139 55.424 43.8006 55.5364 44.0227L55.5375 44.025L55.5386 44.0272C56.2381 45.4353 57.3148 46.6191 58.6476 47.4451C59.9804 48.2711 61.5163 48.7066 63.0821 48.7024L63.0867 48.7023L63.0914 48.7024C64.2081 48.7149 65.3162 48.5045 66.3516 48.0836C67.3869 47.6626 68.3289 47.0395 69.123 46.2501C69.9171 45.4607 70.5475 44.5209 70.9778 43.4849C71.408 42.449 71.6296 41.3376 71.6296 40.215C71.6296 39.0924 71.408 37.981 70.9778 36.945C70.5475 35.9091 69.9171 34.9692 69.123 34.1799C68.3289 33.3905 67.3869 32.7673 66.3516 32.3464C65.3162 31.9254 64.2081 31.7151 63.0914 31.7276L63.0876 31.7276H53.505V29.0154H51.551ZM63.9855 35.78C63.613 35.78 63.311 36.0836 63.311 36.4581C63.311 36.8325 63.613 37.1361 63.9855 37.1361C64.3581 37.1361 64.6601 36.8325 64.6601 36.4581C64.6601 36.0836 64.3581 35.78 63.9855 35.78ZM61.9618 36.4581C61.9618 35.3347 62.8679 34.4239 63.9855 34.4239C65.1032 34.4239 66.0092 35.3347 66.0092 36.4581C66.0092 37.5815 65.1032 38.4922 63.9855 38.4922C62.8679 38.4922 61.9618 37.5815 61.9618 36.4581ZM39.058 35.667C39.058 35.2925 39.36 34.989 39.7326 34.989H42.8806C43.2531 34.989 43.5551 35.2925 43.5551 35.667V37.9272H45.8037C46.1762 37.9272 46.4783 38.2307 46.4783 38.6052V41.7694C46.4783 42.1439 46.1762 42.4474 45.8037 42.4474H43.5551V44.7076C43.5551 45.082 43.2531 45.3856 42.8806 45.3856H39.7326C39.36 45.3856 39.058 45.082 39.058 44.7076V42.4474H36.8095C36.4369 42.4474 36.1349 42.1439 36.1349 41.7694V38.6052C36.1349 38.2307 36.4369 37.9272 36.8095 37.9272H39.058V35.667ZM40.4072 36.3451V38.6052C40.4072 38.9797 40.1051 39.2832 39.7326 39.2832H37.484V41.0913H39.7326C40.1051 41.0913 40.4072 41.3949 40.4072 41.7694V44.0295H42.206V41.7694C42.206 41.3949 42.508 41.0913 42.8806 41.0913H45.1291V39.2832H42.8806C42.508 39.2832 42.206 38.9797 42.206 38.6052V36.3451H40.4072ZM54.8496 37.8062H50.2064V36.4502H54.8496V37.8062ZM60.2754 39.5093C59.9029 39.5093 59.6009 39.8128 59.6009 40.1873C59.6009 40.5618 59.9029 40.8653 60.2754 40.8653C60.648 40.8653 60.95 40.5618 60.95 40.1873C60.95 39.8128 60.648 39.5093 60.2754 39.5093ZM58.2517 40.1873C58.2517 39.0639 59.1578 38.1532 60.2754 38.1532C61.3931 38.1532 62.2991 39.0639 62.2991 40.1873C62.2991 41.3107 61.3931 42.2214 60.2754 42.2214C59.1578 42.2214 58.2517 41.3107 58.2517 40.1873ZM67.6957 39.5093C67.3231 39.5093 67.0211 39.8128 67.0211 40.1873C67.0211 40.5618 67.3231 40.8653 67.6957 40.8653C68.0682 40.8653 68.3702 40.5618 68.3702 40.1873C68.3702 39.8128 68.0682 39.5093 67.6957 39.5093ZM65.672 40.1873C65.672 39.0639 66.578 38.1532 67.6957 38.1532C68.8133 38.1532 69.7194 39.0639 69.7194 40.1873C69.7194 41.3107 68.8133 42.2214 67.6957 42.2214C66.578 42.2214 65.672 41.3107 65.672 40.1873ZM63.9855 43.2385C63.613 43.2385 63.311 43.542 63.311 43.9165C63.311 44.291 63.613 44.5946 63.9855 44.5946C64.3581 44.5946 64.6601 44.291 64.6601 43.9165C64.6601 43.542 64.3581 43.2385 63.9855 43.2385ZM61.9618 43.9165C61.9618 42.7931 62.8679 41.8824 63.9855 41.8824C65.1032 41.8824 66.0092 42.7931 66.0092 43.9165C66.0092 45.0399 65.1032 45.9506 63.9855 45.9506C62.8679 45.9506 61.9618 45.0399 61.9618 43.9165Z" fill="#BDACA8"/>
<path fill-rule="evenodd" clip-rule="evenodd" d="M53.3635 16.0336C54.3692 15.0313 55.7335 14.4681 57.1561 14.4681H72.2871C72.4017 14.4681 72.4946 14.5604 72.4946 14.6742V16.0146C72.4946 16.1284 72.4017 16.2207 72.2871 16.2207H57.1561C56.2007 16.2207 55.2843 16.5989 54.6085 17.2724C53.9327 17.9459 53.5529 18.8595 53.5529 19.8123V27.5066H54.9918C55.1064 27.5066 55.1993 27.5988 55.1993 27.7127V30.1873H63.1913C64.5084 30.1734 65.8152 30.4196 67.0362 30.9118C68.2588 31.4047 69.371 32.1342 70.3086 33.0583C71.2463 33.9824 71.9906 35.0826 72.4985 36.2952C73.0065 37.5079 73.2681 38.8089 73.2681 40.1229C73.2681 41.4369 73.0065 42.7379 72.4985 43.9505C71.9906 45.1631 71.2463 46.2634 70.3086 47.1874C69.371 48.1115 68.2588 48.8411 67.0362 49.3339C65.8155 49.826 64.5092 50.0722 63.1925 50.0585C61.3443 50.0623 59.5317 49.5522 57.9586 48.5855C56.4216 47.6411 55.1729 46.2976 54.3456 44.7003H50.9998C50.2032 46.2299 49.0207 47.5275 47.5675 48.4648C46.0776 49.4258 44.3571 49.9731 42.5838 50.0501C40.8106 50.1272 39.0489 49.7311 37.4806 48.9029C35.9123 48.0746 34.5944 46.8443 33.6628 45.339C32.7312 43.8337 32.2197 42.1079 32.1811 40.3399C32.1424 38.5718 32.578 36.8255 33.4429 35.2812C34.3078 33.7369 35.5707 32.4505 37.1012 31.555C38.6318 30.6595 40.3745 30.1873 42.1495 30.1873H50.1464V27.7127C50.1464 27.5988 50.2393 27.5066 50.3539 27.5066H51.7928V19.8123C51.7928 18.3951 52.3577 17.0359 53.3635 16.0336ZM57.1561 14.8803C55.844 14.8803 54.5854 15.3998 53.6574 16.3246C52.7294 17.2495 52.2079 18.504 52.2079 19.8123V27.7127C52.2079 27.8265 52.115 27.9188 52.0004 27.9188H50.5614V30.3934C50.5614 30.5073 50.4685 30.5996 50.3539 30.5996H42.1495C40.4487 30.5996 38.7787 31.052 37.3119 31.9102C35.8451 32.7684 34.6346 34.0013 33.8056 35.4816C32.9765 36.9619 32.559 38.636 32.596 40.3309C32.6331 42.0259 33.1234 43.6802 34.0164 45.1231C34.9094 46.566 36.1725 47.7452 37.6754 48.5389C39.1783 49.3326 40.8665 49.7121 42.5657 49.6383C44.2649 49.5645 45.9136 49.04 47.3415 48.119C48.7685 47.1986 49.9234 45.9154 50.6871 44.4018C50.7223 44.3321 50.7941 44.288 50.8726 44.288H54.4731C54.5518 44.288 54.6237 44.3323 54.6588 44.4022C55.4509 45.9812 56.6693 47.3085 58.1769 48.2349C59.6846 49.1613 61.4217 49.6501 63.1928 49.6462L63.1955 49.6462C64.4576 49.6596 65.7099 49.4236 66.8801 48.9519C68.0517 48.4797 69.1177 47.7805 70.0163 46.8948C70.915 46.0091 71.6284 44.9545 72.1154 43.7921C72.6023 42.6297 72.853 41.3826 72.853 40.1229C72.853 38.8632 72.6023 37.616 72.1154 36.4536C71.6284 35.2912 70.915 34.2366 70.0163 33.351C69.1177 32.4653 68.0517 31.7661 66.8801 31.2938C65.7097 30.822 64.4571 30.5861 63.1947 30.5996L63.1925 30.5996H54.9918C54.8772 30.5996 54.7843 30.5073 54.7843 30.3934V27.9188H53.3453C53.2307 27.9188 53.1378 27.8265 53.1378 27.7127V19.8123C53.1378 18.7506 53.561 17.7323 54.3145 16.9814C55.068 16.2305 56.0902 15.8085 57.1561 15.8085H72.0796V14.8803H57.1561ZM51.4913 29.0531C51.4913 28.9392 51.5842 28.8469 51.6989 28.8469H53.6468C53.7614 28.8469 53.8544 28.9392 53.8544 29.0531V31.5277H63.1999L63.2013 31.5277C64.3422 31.515 65.4742 31.7281 66.5319 32.1544C67.5895 32.5808 68.5518 33.2119 69.3629 34.0114C70.174 34.8108 70.8179 35.7626 71.2574 36.8116C71.6968 37.8607 71.9231 38.9861 71.9231 40.1229C71.9231 41.2596 71.6968 42.3851 71.2574 43.4341C70.8179 44.4832 70.174 45.435 69.3629 46.2344C68.5518 47.0338 67.5895 47.665 66.5319 48.0913C65.4742 48.5177 64.3422 48.7307 63.2013 48.7181L63.1996 48.7181L63.1949 48.7181C61.5952 48.7223 60.0261 48.2812 58.6645 47.4446C57.3028 46.6079 56.2029 45.4089 55.4884 43.9828L55.4879 43.9818L55.4873 43.9807L55.4868 43.9797C55.392 43.7939 55.2477 43.6378 55.0698 43.5285C54.8919 43.4192 54.6873 43.3609 54.4784 43.3599L54.4778 43.3599L54.477 43.3599H50.8687L50.8679 43.3599L50.8673 43.3599C50.6584 43.3609 50.4538 43.4192 50.2759 43.5285C50.098 43.6378 49.9537 43.7939 49.8589 43.9797M49.8589 43.9797L49.8587 43.9801L49.8581 43.9811L49.8579 43.9816C49.1688 45.3487 48.1258 46.5081 46.8368 47.3395C45.5478 48.1709 44.0594 48.6444 42.5253 48.711C40.9912 48.7777 39.4671 48.435 38.1104 47.7185C36.7536 47.002 35.6135 45.9377 34.8076 44.6354C34.0017 43.3332 33.5592 41.8402 33.5257 40.3107C33.4923 38.7812 33.8691 37.2704 34.6173 35.9344C35.3656 34.5984 36.4581 33.4856 37.7822 32.7109C39.1063 31.9362 40.614 31.5277 42.1495 31.5277H51.4913V29.0531M51.9064 29.2592V31.7338C51.9064 31.8477 51.8135 31.9399 51.6989 31.9399H42.1495C40.6881 31.94 39.2532 32.3287 37.9928 33.0661C36.7325 33.8035 35.6924 34.8629 34.98 36.1348C34.2677 37.4068 33.9088 38.8453 33.9407 40.3017C33.9725 41.7582 34.3939 43.1797 35.1612 44.4195C35.9285 45.6593 37.0139 46.6725 38.3052 47.3545C39.5966 48.0365 41.0471 48.3626 42.5072 48.2992C43.9672 48.2358 45.3838 47.7851 46.6107 46.9937C47.8377 46.2024 48.8305 45.0989 49.4867 43.7972L49.4873 43.7959L49.4879 43.7949L49.4886 43.7934C49.6179 43.5402 49.8147 43.3271 50.0576 43.1779C50.3004 43.0287 50.5799 42.949 50.8653 42.9477L50.867 42.9477L50.8679 42.9477L54.4786 42.9477L54.4802 42.9477C54.7656 42.949 55.0453 43.0287 55.2881 43.1779C55.531 43.3271 55.7278 43.5401 55.857 43.7933L55.8588 43.7969L55.8599 43.7991C56.54 45.1566 57.587 46.2978 58.8828 47.094C60.1786 47.8902 61.6717 48.3099 63.1938 48.3058L63.2013 48.3058L63.2059 48.3059C64.2917 48.3179 65.3691 48.1151 66.3758 47.7093C67.3825 47.3036 68.2984 46.7028 69.0706 45.9418C69.8427 45.1807 70.4558 44.2746 70.8742 43.2758C71.2926 42.2769 71.5081 41.2053 71.5081 40.1229C71.5081 39.0405 71.2926 37.9688 70.8742 36.97C70.4558 35.9712 69.8427 35.065 69.0706 34.304C68.2984 33.543 67.3825 32.9422 66.3758 32.5364C65.3691 32.1306 64.2917 31.9279 63.2059 31.9399L63.2022 31.9399L63.1999 31.9399H53.6468C53.5322 31.9399 53.4393 31.8477 53.4393 31.7338V29.2592H51.9064ZM61.8701 36.4095C61.8701 35.1859 62.8656 34.1928 64.0951 34.1928C65.3246 34.1928 66.3201 35.1859 66.3201 36.4095C66.3201 37.6331 65.3246 38.6262 64.0951 38.6262C62.8656 38.6262 61.8701 37.6331 61.8701 36.4095ZM64.0951 34.6051C63.0961 34.6051 62.2851 35.4123 62.2851 36.4095C62.2851 37.4067 63.0961 38.2139 64.0951 38.2139C65.094 38.2139 65.905 37.4067 65.905 36.4095C65.905 35.4123 65.094 34.6051 64.0951 34.6051ZM39.0368 35.6276C39.0368 35.1443 39.4302 34.7513 39.9168 34.7513H43.0551C43.5418 34.7513 43.9351 35.1443 43.9351 35.6276V37.6554H45.9692C46.4559 37.6554 46.8493 38.0484 46.8493 38.5317V41.6593C46.8493 42.1426 46.4559 42.5356 45.9692 42.5356H43.9351V44.5634C43.9351 45.0468 43.5418 45.4397 43.0551 45.4397H39.9168C39.4302 45.4397 39.0368 45.0468 39.0368 44.5634V42.5356H37.0027C36.5161 42.5356 36.1227 42.1426 36.1227 41.6593V38.5317C36.1227 38.0484 36.5161 37.6554 37.0027 37.6554H39.0368V35.6276ZM39.9168 35.1635C39.6607 35.1635 39.4519 35.3707 39.4519 35.6276V37.8616C39.4519 37.9754 39.359 38.0677 39.2443 38.0677H37.0027C36.7466 38.0677 36.5377 38.2748 36.5377 38.5317V41.6593C36.5377 41.9162 36.7466 42.1233 37.0027 42.1233H39.2443C39.359 42.1233 39.4519 42.2156 39.4519 42.3295V44.5634C39.4519 44.8204 39.6607 45.0275 39.9168 45.0275H43.0551C43.3113 45.0275 43.5201 44.8204 43.5201 44.5634V42.3295C43.5201 42.2156 43.613 42.1233 43.7276 42.1233H45.9692C46.2254 42.1233 46.4342 41.9162 46.4342 41.6593V38.5317C46.4342 38.2748 46.2254 38.0677 45.9692 38.0677H43.7276C43.613 38.0677 43.5201 37.9754 43.5201 37.8616V35.6276C43.5201 35.3707 43.3113 35.1635 43.0551 35.1635H39.9168ZM64.0951 35.9454C63.8389 35.9454 63.6301 36.1525 63.6301 36.4095C63.6301 36.6664 63.8389 36.8735 64.0951 36.8735C64.3512 36.8735 64.56 36.6664 64.56 36.4095C64.56 36.1525 64.3512 35.9454 64.0951 35.9454ZM63.2151 36.4095C63.2151 35.9262 63.6084 35.5332 64.0951 35.5332C64.5817 35.5332 64.9751 35.9262 64.9751 36.4095C64.9751 36.8928 64.5817 37.2858 64.0951 37.2858C63.6084 37.2858 63.2151 36.8928 63.2151 36.4095ZM40.3818 36.2978C40.3818 36.1839 40.4747 36.0917 40.5893 36.0917H42.3826C42.4972 36.0917 42.5902 36.1839 42.5902 36.2978V38.5317C42.5902 38.7887 42.799 38.9958 43.0551 38.9958H45.2968C45.4114 38.9958 45.5043 39.0881 45.5043 39.2019V40.9891C45.5043 41.1029 45.4114 41.1952 45.2968 41.1952H43.0551C42.799 41.1952 42.5902 41.4023 42.5902 41.6593V43.8932C42.5902 44.0071 42.4972 44.0994 42.3826 44.0994H40.5893C40.4747 44.0994 40.3818 44.0071 40.3818 43.8932V41.6593C40.3818 41.4023 40.173 41.1952 39.9168 41.1952H37.6752C37.5606 41.1952 37.4677 41.1029 37.4677 40.9891V39.2019C37.4677 39.0881 37.5606 38.9958 37.6752 38.9958H39.9168C40.173 38.9958 40.3818 38.7887 40.3818 38.5317V36.2978ZM40.7968 36.5039V38.5317C40.7968 39.0151 40.4035 39.4081 39.9168 39.4081H37.8827V40.783H39.9168C40.4035 40.783 40.7968 41.1759 40.7968 41.6593V43.6871H42.1751V41.6593C42.1751 41.1759 42.5685 40.783 43.0551 40.783H45.0892V39.4081H43.0551C42.5685 39.4081 42.1751 39.0151 42.1751 38.5317V36.5039H40.7968ZM50.1508 36.4017C50.1508 36.2878 50.2437 36.1955 50.3584 36.1955H54.9873C55.1019 36.1955 55.1949 36.2878 55.1949 36.4017V37.742C55.1949 37.8559 55.1019 37.9482 54.9873 37.9482H50.3584C50.2437 37.9482 50.1508 37.8559 50.1508 37.742V36.4017ZM50.5659 36.6078V37.5359H54.7798V36.6078H50.5659ZM58.1714 40.0955C58.1714 38.8719 59.1669 37.8788 60.3964 37.8788C61.6259 37.8788 62.6214 38.8719 62.6214 40.0955C62.6214 41.3191 61.6259 42.3122 60.3964 42.3122C59.1669 42.3122 58.1714 41.3191 58.1714 40.0955ZM60.3964 38.2911C59.3974 38.2911 58.5864 39.0983 58.5864 40.0955C58.5864 41.0927 59.3974 41.8999 60.3964 41.8999C61.3953 41.8999 62.2063 41.0927 62.2063 40.0955C62.2063 39.0983 61.3953 38.2911 60.3964 38.2911ZM65.5688 40.0955C65.5688 38.8719 66.5643 37.8788 67.7938 37.8788C69.0232 37.8788 70.0188 38.8719 70.0188 40.0955C70.0188 41.3191 69.0232 42.3122 67.7938 42.3122C66.5643 42.3122 65.5688 41.3191 65.5688 40.0955ZM67.7938 38.2911C66.7948 38.2911 65.9838 39.0983 65.9838 40.0955C65.9838 41.0927 66.7948 41.8999 67.7938 41.8999C68.7927 41.8999 69.6037 41.0927 69.6037 40.0955C69.6037 39.0983 68.7927 38.2911 67.7938 38.2911ZM60.3964 39.6315C60.1402 39.6315 59.9314 39.8386 59.9314 40.0955C59.9314 40.3524 60.1402 40.5596 60.3964 40.5596C60.6525 40.5596 60.8614 40.3524 60.8614 40.0955C60.8614 39.8386 60.6525 39.6315 60.3964 39.6315ZM59.5164 40.0955C59.5164 39.6122 59.9097 39.2192 60.3964 39.2192C60.883 39.2192 61.2764 39.6122 61.2764 40.0955C61.2764 40.5788 60.883 40.9718 60.3964 40.9718C59.9097 40.9718 59.5164 40.5788 59.5164 40.0955ZM67.7938 39.6315C67.5376 39.6315 67.3288 39.8386 67.3288 40.0955C67.3288 40.3524 67.5376 40.5596 67.7938 40.5596C68.0499 40.5596 68.2587 40.3524 68.2587 40.0955C68.2587 39.8386 68.0499 39.6315 67.7938 39.6315ZM66.9138 40.0955C66.9138 39.6122 67.3071 39.2192 67.7938 39.2192C68.2804 39.2192 68.6738 39.6122 68.6738 40.0955C68.6738 40.5788 68.2804 40.9718 67.7938 40.9718C67.3071 40.9718 66.9138 40.5788 66.9138 40.0955ZM61.8701 43.7815C61.8701 42.5579 62.8656 41.5648 64.0951 41.5648C65.3246 41.5648 66.3201 42.5579 66.3201 43.7815C66.3201 45.0051 65.3246 45.9982 64.0951 45.9982C62.8656 45.9982 61.8701 45.0051 61.8701 43.7815ZM64.0951 41.9771C63.0961 41.9771 62.2851 42.7843 62.2851 43.7815C62.2851 44.7787 63.0961 45.586 64.0951 45.586C65.094 45.586 65.905 44.7787 65.905 43.7815C65.905 42.7843 65.094 41.9771 64.0951 41.9771ZM64.0951 43.3175C63.8389 43.3175 63.6301 43.5246 63.6301 43.7815C63.6301 44.0385 63.8389 44.2456 64.0951 44.2456C64.3512 44.2456 64.56 44.0385 64.56 43.7815C64.56 43.5246 64.3512 43.3175 64.0951 43.3175ZM63.2151 43.7815C63.2151 43.2982 63.6084 42.9052 64.0951 42.9052C64.5817 42.9052 64.9751 43.2982 64.9751 43.7815C64.9751 44.2649 64.5817 44.6579 64.0951 44.6579C63.6084 44.6579 63.2151 44.2649 63.2151 43.7815Z" fill="#BDACA8"/>
<path fill-rule="evenodd" clip-rule="evenodd" d="M52.1447 61.3447C67.007 61.3447 79.0553 49.2964 79.0553 34.434C79.0553 19.5717 67.007 7.5234 52.1447 7.5234C37.2823 7.5234 25.234 19.5717 25.234 34.434C25.234 49.2964 37.2823 61.3447 52.1447 61.3447ZM52.1447 63.3702C68.1257 63.3702 81.0808 50.415 81.0808 34.434C81.0808 18.453 68.1257 5.49786 52.1447 5.49786C36.1637 5.49786 23.2085 18.453 23.2085 34.434C23.2085 50.415 36.1637 63.3702 52.1447 63.3702Z" fill="#BDACA8"/>
<path d="M29.3625 96.988H31.0845V100.894C30.5805 101.295 29.9925 101.603 29.3205 101.818C28.6485 102.033 27.9578 102.14 27.2485 102.14C26.2498 102.14 25.3492 101.925 24.5465 101.496C23.7438 101.057 23.1138 100.455 22.6565 99.69C22.1992 98.9247 21.9705 98.0613 21.9705 97.1C21.9705 96.1387 22.1992 95.2753 22.6565 94.51C23.1138 93.7447 23.7438 93.1473 24.5465 92.718C25.3585 92.2793 26.2685 92.06 27.2765 92.06C28.0978 92.06 28.8445 92.1953 29.5165 92.466C30.1885 92.7367 30.7532 93.1333 31.2105 93.656L30.0625 94.776C29.3158 94.0293 28.4152 93.656 27.3605 93.656C26.6698 93.656 26.0538 93.8007 25.5125 94.09C24.9805 94.3793 24.5605 94.7853 24.2525 95.308C23.9538 95.8307 23.8045 96.428 23.8045 97.1C23.8045 97.7533 23.9538 98.3413 24.2525 98.864C24.5605 99.3867 24.9805 99.7973 25.5125 100.096C26.0538 100.395 26.6652 100.544 27.3465 100.544C28.1118 100.544 28.7838 100.376 29.3625 100.04V96.988ZM39.8409 99.732H34.9409L33.9749 102H32.0989L36.5089 92.2H38.3009L42.7249 102H40.8209L39.8409 99.732ZM39.2389 98.304L37.3909 94.02L35.5569 98.304H39.2389ZM52.9733 102L52.9593 95.504L49.7393 100.88H48.9273L45.7073 95.588V102H43.9713V92.2H45.4693L49.3613 98.696L53.1833 92.2H54.6813L54.6953 102H52.9733ZM57.3424 92.2H59.1624V102H57.3424V92.2ZM70.5211 92.2V102H69.0231L63.6191 95.364V102H61.8131V92.2H63.3111L68.7151 98.836V92.2H70.5211ZM79.8391 96.988H81.5611V100.894C81.0571 101.295 80.4691 101.603 79.7971 101.818C79.1251 102.033 78.4344 102.14 77.7251 102.14C76.7264 102.14 75.8257 101.925 75.0231 101.496C74.2204 101.057 73.5904 100.455 73.1331 99.69C72.6757 98.9247 72.4471 98.0613 72.4471 97.1C72.4471 96.1387 72.6757 95.2753 73.1331 94.51C73.5904 93.7447 74.2204 93.1473 75.0231 92.718C75.8351 92.2793 76.7451 92.06 77.7531 92.06C78.5744 92.06 79.3211 92.1953 79.9931 92.466C80.6651 92.7367 81.2297 93.1333 81.6871 93.656L80.5391 94.776C79.7924 94.0293 78.8917 93.656 77.8371 93.656C77.1464 93.656 76.5304 93.8007 75.9891 94.09C75.4571 94.3793 75.0371 94.7853 74.7291 95.308C74.4304 95.8307 74.2811 96.428 74.2811 97.1C74.2811 97.7533 74.4304 98.3413 74.7291 98.864C75.0371 99.3867 75.4571 99.7973 75.9891 100.096C76.5304 100.395 77.1417 100.544 77.8231 100.544C78.5884 100.544 79.2604 100.376 79.8391 100.04V96.988Z" fill="#BDACA8"/>
</svg>
