<svg width="104" height="105" viewBox="0 0 104 105" fill="none" xmlns="http://www.w3.org/2000/svg">
<path fill-rule="evenodd" clip-rule="evenodd" d="M23.2085 34.1447C23.2085 18.1637 36.1637 5.20851 52.1447 5.20851C68.1257 5.20851 81.0808 18.1637 81.0808 34.1447C81.0808 50.1257 68.1257 63.0809 52.1447 63.0809C36.1637 63.0809 23.2085 50.1257 23.2085 34.1447ZM52.1447 7.43437C37.393 7.43437 25.4344 19.393 25.4344 34.1447C25.4344 48.8964 37.393 60.855 52.1447 60.855C66.8964 60.855 78.855 48.8964 78.855 34.1447C78.855 19.393 66.8964 7.43437 52.1447 7.43437Z" fill="#BDACA8"/>
<path d="M43.7129 24.2572C43.1296 24.8555 42.3878 25.1547 41.4877 25.1547C40.7531 25.1547 40.1086 24.9588 39.5541 24.567C39.0068 24.1752 38.636 23.6624 38.4415 23.0284H42.1466V22.5583H38.3227C38.3011 22.3945 38.2903 22.2271 38.2903 22.0561C38.2903 21.878 38.3011 21.7107 38.3227 21.5539H42.1466V21.0838H38.4415C38.636 20.4499 39.0068 19.937 39.5541 19.5452C40.1086 19.1535 40.7531 18.9576 41.4877 18.9576C42.3806 18.9576 43.1224 19.2532 43.7129 19.8444L44.2314 19.3422C43.8929 18.9861 43.486 18.7154 43.0107 18.5302C42.5355 18.345 42.0134 18.2524 41.4445 18.2524C40.818 18.2524 40.2382 18.3735 39.7054 18.6157C39.1725 18.8507 38.7224 19.182 38.3551 19.6093C37.995 20.0367 37.7466 20.5282 37.6098 21.0838H36.3568V21.5539H37.5234C37.5018 21.7107 37.491 21.878 37.491 22.0561C37.491 22.2271 37.5018 22.3945 37.5234 22.5583H36.3568V23.0284H37.6098C37.7466 23.584 37.995 24.0755 38.3551 24.5029C38.7224 24.9303 39.1725 25.2651 39.7054 25.5073C40.2382 25.7423 40.818 25.8598 41.4445 25.8598C42.0134 25.8598 42.5355 25.7672 43.0107 25.582C43.486 25.3968 43.8929 25.1226 44.2314 24.7593L43.7129 24.2572Z" fill="#BDACA8"/>
<path fill-rule="evenodd" clip-rule="evenodd" d="M41.1345 15.1111C44.3003 15.1111 46.9713 17.2066 47.8072 20.0718H58.8806C59.9459 20.0718 60.8095 20.9261 60.8095 21.9798V24.6518C66.9846 24.7282 71.9682 29.6911 71.9682 35.8041C71.9682 41.9171 66.9846 46.8801 60.8095 46.9564V50.9809C60.8095 52.0347 59.9459 52.8889 58.8806 52.8889H42.6777C41.6124 52.8889 40.7487 52.0347 40.7487 50.9809V28.8381C37.0931 28.6401 34.1904 25.6452 34.1904 21.9798C34.1904 18.1863 37.2994 15.1111 41.1345 15.1111ZM41.1345 28.0853C44.5435 28.0853 47.3071 25.3518 47.3071 21.9798C47.3071 18.6078 44.5435 15.8743 41.1345 15.8743C37.7255 15.8743 34.962 18.6078 34.962 21.9798C34.962 25.3518 37.7255 28.0853 41.1345 28.0853ZM41.5203 47.9282V28.8381C45.176 28.6401 48.0786 25.6452 48.0786 21.9798C48.0786 21.5898 48.0458 21.2073 47.9826 20.835H58.8806C59.5197 20.835 60.0379 21.3476 60.0379 21.9798V24.6678C54.0879 24.9889 49.3619 29.8512 49.3619 35.8041C49.3619 41.757 54.0879 46.6193 60.0379 46.9404V47.9282H41.5203ZM60.0379 48.6914H41.5203V50.9809C41.5203 51.6132 42.0385 52.1257 42.6777 52.1257H58.8806C59.5198 52.1257 60.0379 51.6132 60.0379 50.9809V48.6914ZM58.9587 25.5498C56.5412 25.9383 54.4002 27.1389 52.8327 28.8582H57.207C57.2797 28.6225 57.356 28.3951 57.4359 28.1767C57.7954 27.1931 58.2326 26.3702 58.7374 25.7861C58.8091 25.7031 58.8829 25.6242 58.9587 25.5498ZM62.0746 25.5064C62.1664 25.5932 62.2552 25.6868 62.341 25.7861C62.8459 26.3702 63.283 27.1931 63.6425 28.1767C63.7224 28.3951 63.7988 28.6225 63.8715 28.8582H68.4974C66.866 27.0688 64.6136 25.8414 62.0746 25.5064ZM63.0628 28.8582C63.0156 28.7137 62.9669 28.5729 62.9169 28.4362C62.5751 27.5009 62.1771 26.7709 61.7545 26.282C61.3308 25.7916 60.9187 25.5824 60.5392 25.5824C60.1597 25.5824 59.7476 25.7916 59.3239 26.282C58.9013 26.7709 58.5033 27.5009 58.1615 28.4362C58.1115 28.5729 58.0629 28.7137 58.0156 28.8582H63.0628ZM63.2893 29.6214C63.7378 31.2877 64.0119 33.3477 64.0283 35.5905H57.0501C57.0665 33.3477 57.3406 31.2877 57.7891 29.6214H63.2893ZM56.9919 29.6214H52.2002C50.9416 31.2959 50.1813 33.3568 50.1356 35.5905H56.2785C56.2943 33.3815 56.5539 31.3269 56.9919 29.6214ZM56.2828 36.3537H50.1479C50.2591 38.4577 51.0047 40.3961 52.1997 41.9862H56.9918C56.5762 40.3676 56.3212 38.4346 56.2828 36.3537ZM57.2068 42.7494H52.832C54.3997 44.4691 56.541 45.6699 58.9589 46.0585C58.883 45.984 58.8091 45.905 58.7374 45.822C58.2326 45.2378 57.7954 44.415 57.4359 43.4314C57.356 43.2128 57.2796 42.9852 57.2068 42.7494ZM62.0745 46.1019C64.6138 45.7668 66.8665 44.5391 68.498 42.7494H63.8716C63.7989 42.9852 63.7224 43.2128 63.6425 43.4314C63.283 44.415 62.8459 45.2378 62.341 45.822C62.2552 45.9214 62.1663 46.015 62.0745 46.1019ZM63.0629 42.7494C63.0157 42.8941 62.967 43.035 62.9169 43.1719C62.5751 44.1072 62.1771 44.8371 61.7545 45.3261C61.3308 45.8165 60.9187 46.0257 60.5392 46.0257C60.1597 46.0257 59.7476 45.8165 59.3239 45.3261C58.9013 44.8371 58.5033 44.1072 58.1615 43.1719C58.1114 43.035 58.0627 42.8941 58.0155 42.7494H63.0629ZM57.789 41.9862C57.3631 40.4036 57.0944 38.4659 57.0545 36.3537H64.0239C63.984 38.4659 63.7153 40.4036 63.2894 41.9862H57.789ZM64.0866 41.9862H69.1303C70.3254 40.3961 71.071 38.4577 71.1822 36.3537H64.7956C64.7573 38.4346 64.5023 40.3676 64.0866 41.9862ZM64.7999 35.5905H71.1945C71.1488 33.3568 70.3885 31.2959 69.1298 29.6214H64.0865C64.5245 31.3269 64.7842 33.3815 64.7999 35.5905Z" fill="#BDACA8"/>
<path d="M43.7129 24.2572C43.1296 24.8555 42.3878 25.1547 41.4877 25.1547C40.7531 25.1547 40.1086 24.9588 39.5541 24.567C39.0068 24.1752 38.636 23.6624 38.4415 23.0284H42.1466V22.5583H38.3227C38.3011 22.3945 38.2903 22.2271 38.2903 22.0561C38.2903 21.878 38.3011 21.7107 38.3227 21.5539H42.1466V21.0838H38.4415C38.636 20.4499 39.0068 19.937 39.5541 19.5452C40.1086 19.1535 40.7531 18.9576 41.4877 18.9576C42.3806 18.9576 43.1224 19.2532 43.7129 19.8444L44.2314 19.3422C43.8929 18.9861 43.486 18.7154 43.0107 18.5302C42.5355 18.345 42.0134 18.2524 41.4445 18.2524C40.818 18.2524 40.2382 18.3735 39.7054 18.6157C39.1725 18.8507 38.7224 19.182 38.3551 19.6093C37.995 20.0367 37.7466 20.5282 37.6098 21.0838H36.3568V21.5539H37.5234C37.5018 21.7107 37.491 21.878 37.491 22.0561C37.491 22.2271 37.5018 22.3945 37.5234 22.5583H36.3568V23.0284H37.6098C37.7466 23.584 37.995 24.0755 38.3551 24.5029C38.7224 24.9303 39.1725 25.2651 39.7054 25.5073C40.2382 25.7423 40.818 25.8598 41.4445 25.8598C42.0134 25.8598 42.5355 25.7672 43.0107 25.582C43.486 25.3968 43.8929 25.1226 44.2314 24.7593L43.7129 24.2572Z" stroke="#BDACA8" stroke-width="0.5"/>
<path fill-rule="evenodd" clip-rule="evenodd" d="M41.1345 15.1111C44.3003 15.1111 46.9713 17.2066 47.8072 20.0718H58.8806C59.9459 20.0718 60.8095 20.9261 60.8095 21.9798V24.6518C66.9846 24.7282 71.9682 29.6911 71.9682 35.8041C71.9682 41.9171 66.9846 46.8801 60.8095 46.9564V50.9809C60.8095 52.0347 59.9459 52.8889 58.8806 52.8889H42.6777C41.6124 52.8889 40.7487 52.0347 40.7487 50.9809V28.8381C37.0931 28.6401 34.1904 25.6452 34.1904 21.9798C34.1904 18.1863 37.2994 15.1111 41.1345 15.1111ZM41.1345 28.0853C44.5435 28.0853 47.3071 25.3518 47.3071 21.9798C47.3071 18.6078 44.5435 15.8743 41.1345 15.8743C37.7255 15.8743 34.962 18.6078 34.962 21.9798C34.962 25.3518 37.7255 28.0853 41.1345 28.0853ZM41.5203 47.9282V28.8381C45.176 28.6401 48.0786 25.6452 48.0786 21.9798C48.0786 21.5898 48.0458 21.2073 47.9826 20.835H58.8806C59.5197 20.835 60.0379 21.3476 60.0379 21.9798V24.6678C54.0879 24.9889 49.3619 29.8512 49.3619 35.8041C49.3619 41.757 54.0879 46.6193 60.0379 46.9404V47.9282H41.5203ZM60.0379 48.6914H41.5203V50.9809C41.5203 51.6132 42.0385 52.1257 42.6777 52.1257H58.8806C59.5198 52.1257 60.0379 51.6132 60.0379 50.9809V48.6914ZM58.9587 25.5498C56.5412 25.9383 54.4002 27.1389 52.8327 28.8582H57.207C57.2797 28.6225 57.356 28.3951 57.4359 28.1767C57.7954 27.1931 58.2326 26.3702 58.7374 25.7861C58.8091 25.7031 58.8829 25.6242 58.9587 25.5498ZM62.0746 25.5064C62.1664 25.5932 62.2552 25.6868 62.341 25.7861C62.8459 26.3702 63.283 27.1931 63.6425 28.1767C63.7224 28.3951 63.7988 28.6225 63.8715 28.8582H68.4974C66.866 27.0688 64.6136 25.8414 62.0746 25.5064ZM63.0628 28.8582C63.0156 28.7137 62.9669 28.5729 62.9169 28.4362C62.5751 27.5009 62.1771 26.7709 61.7545 26.282C61.3308 25.7916 60.9187 25.5824 60.5392 25.5824C60.1597 25.5824 59.7476 25.7916 59.3239 26.282C58.9013 26.7709 58.5033 27.5009 58.1615 28.4362C58.1115 28.5729 58.0629 28.7137 58.0156 28.8582H63.0628ZM63.2893 29.6214C63.7378 31.2877 64.0119 33.3477 64.0283 35.5905H57.0501C57.0665 33.3477 57.3406 31.2877 57.7891 29.6214H63.2893ZM56.9919 29.6214H52.2002C50.9416 31.2959 50.1813 33.3568 50.1356 35.5905H56.2785C56.2943 33.3815 56.5539 31.3269 56.9919 29.6214ZM56.2828 36.3537H50.1479C50.2591 38.4577 51.0047 40.3961 52.1997 41.9862H56.9918C56.5762 40.3676 56.3212 38.4346 56.2828 36.3537ZM57.2068 42.7494H52.832C54.3997 44.4691 56.541 45.6699 58.9589 46.0585C58.883 45.984 58.8091 45.905 58.7374 45.822C58.2326 45.2378 57.7954 44.415 57.4359 43.4314C57.356 43.2128 57.2796 42.9852 57.2068 42.7494ZM62.0745 46.1019C64.6138 45.7668 66.8665 44.5391 68.498 42.7494H63.8716C63.7989 42.9852 63.7224 43.2128 63.6425 43.4314C63.283 44.415 62.8459 45.2378 62.341 45.822C62.2552 45.9214 62.1663 46.015 62.0745 46.1019ZM63.0629 42.7494C63.0157 42.8941 62.967 43.035 62.9169 43.1719C62.5751 44.1072 62.1771 44.8371 61.7545 45.3261C61.3308 45.8165 60.9187 46.0257 60.5392 46.0257C60.1597 46.0257 59.7476 45.8165 59.3239 45.3261C58.9013 44.8371 58.5033 44.1072 58.1615 43.1719C58.1114 43.035 58.0627 42.8941 58.0155 42.7494H63.0629ZM57.789 41.9862C57.3631 40.4036 57.0944 38.4659 57.0545 36.3537H64.0239C63.984 38.4659 63.7153 40.4036 63.2894 41.9862H57.789ZM64.0866 41.9862H69.1303C70.3254 40.3961 71.071 38.4577 71.1822 36.3537H64.7956C64.7573 38.4346 64.5023 40.3676 64.0866 41.9862ZM64.7999 35.5905H71.1945C71.1488 33.3568 70.3885 31.2959 69.1298 29.6214H64.0865C64.5245 31.3269 64.7842 33.3815 64.7999 35.5905Z" stroke="#BDACA8" stroke-width="0.5"/>
<path d="M42.7875 92.2C43.6368 92.2 44.3741 92.34 44.9995 92.62C45.6341 92.9 46.1195 93.3013 46.4555 93.824C46.7915 94.3467 46.9595 94.9673 46.9595 95.686C46.9595 96.3953 46.7915 97.016 46.4555 97.548C46.1195 98.0707 45.6341 98.472 44.9995 98.752C44.3741 99.032 43.6368 99.172 42.7875 99.172H40.5755V102H38.7555V92.2H42.7875ZM42.7035 97.632C43.4968 97.632 44.0988 97.464 44.5095 97.128C44.9201 96.792 45.1255 96.3113 45.1255 95.686C45.1255 95.0607 44.9201 94.58 44.5095 94.244C44.0988 93.908 43.4968 93.74 42.7035 93.74H40.5755V97.632H42.7035ZM51.9517 102.14C51.1957 102.14 50.463 102.033 49.7537 101.818C49.0537 101.603 48.4983 101.319 48.0877 100.964L48.7177 99.55C49.119 99.8673 49.609 100.129 50.1877 100.334C50.7757 100.53 51.3637 100.628 51.9517 100.628C52.6797 100.628 53.221 100.511 53.5757 100.278C53.9397 100.045 54.1217 99.7367 54.1217 99.354C54.1217 99.074 54.019 98.8453 53.8137 98.668C53.6177 98.4813 53.3657 98.3367 53.0577 98.234C52.7497 98.1313 52.3297 98.0147 51.7977 97.884C51.051 97.7067 50.4443 97.5293 49.9777 97.352C49.5203 97.1747 49.1237 96.8993 48.7877 96.526C48.461 96.1433 48.2977 95.63 48.2977 94.986C48.2977 94.4447 48.4423 93.9547 48.7317 93.516C49.0303 93.068 49.4737 92.7133 50.0617 92.452C50.659 92.1907 51.387 92.06 52.2457 92.06C52.843 92.06 53.431 92.1347 54.0097 92.284C54.5883 92.4333 55.0877 92.648 55.5077 92.928L54.9337 94.342C54.5043 94.09 54.0563 93.8987 53.5897 93.768C53.123 93.6373 52.6703 93.572 52.2317 93.572C51.513 93.572 50.9763 93.6933 50.6217 93.936C50.2763 94.1787 50.1037 94.5007 50.1037 94.902C50.1037 95.182 50.2017 95.4107 50.3977 95.588C50.603 95.7653 50.8597 95.9053 51.1677 96.008C51.4757 96.1107 51.8957 96.2273 52.4277 96.358C53.1557 96.526 53.753 96.7033 54.2197 96.89C54.6863 97.0673 55.083 97.3427 55.4097 97.716C55.7457 98.0893 55.9137 98.5933 55.9137 99.228C55.9137 99.7693 55.7643 100.259 55.4657 100.698C55.1763 101.137 54.733 101.487 54.1357 101.748C53.5383 102.009 52.8103 102.14 51.9517 102.14ZM61.7503 92.2C62.5997 92.2 63.337 92.34 63.9623 92.62C64.597 92.9 65.0823 93.3013 65.4183 93.824C65.7543 94.3467 65.9223 94.9673 65.9223 95.686C65.9223 96.3953 65.7543 97.016 65.4183 97.548C65.0823 98.0707 64.597 98.472 63.9623 98.752C63.337 99.032 62.5997 99.172 61.7503 99.172H59.5383V102H57.7183V92.2H61.7503ZM61.6663 97.632C62.4597 97.632 63.0617 97.464 63.4723 97.128C63.883 96.792 64.0883 96.3113 64.0883 95.686C64.0883 95.0607 63.883 94.58 63.4723 94.244C63.0617 93.908 62.4597 93.74 61.6663 93.74H59.5383V97.632H61.6663Z" fill="#BDACA8"/>
</svg>
